<?xml version="1.0" standalone="no"?>
<!DOCTYPE svg PUBLIC "-//W3C//DTD SVG 1.1//EN" "http://www.w3.org/Graphics/SVG/1.1/DTD/svg11.dtd" >
<!--
2013-9-30: Created.
-->
<svg>
<metadata>
Created by iconfont
</metadata>
<defs>

<font id="iconfont" horiz-adv-x="1024" >
  <font-face
    font-family="iconfont"
    font-weight="500"
    font-stretch="normal"
    units-per-em="1024"
    ascent="896"
    descent="-128"
  />
    <missing-glyph />
    
    <glyph glyph-name="x" unicode="x" horiz-adv-x="1001"
d="M281 543q-27 -1 -53 -1h-83q-18 0 -36.5 -6t-32.5 -18.5t-23 -32t-9 -45.5v-76h912v41q0 16 -0.5 30t-0.5 18q0 13 -5 29t-17 29.5t-31.5 22.5t-49.5 9h-133v-97h-438v97zM955 310v-52q0 -23 0.5 -52t0.5 -58t-10.5 -47.5t-26 -30t-33 -16t-31.5 -4.5q-14 -1 -29.5 -0.5
t-29.5 0.5h-32l-45 128h-439l-44 -128h-29h-34q-20 0 -45 1q-25 0 -41 9.5t-25.5 23t-13.5 29.5t-4 30v167h911zM163 247q-12 0 -21 -8.5t-9 -21.5t9 -21.5t21 -8.5q13 0 22 8.5t9 21.5t-9 21.5t-22 8.5zM316 123q-8 -26 -14 -48q-5 -19 -10.5 -37t-7.5 -25t-3 -15t1 -14.5
t9.5 -10.5t21.5 -4h37h67h81h80h64h36q23 0 34 12t2 38q-5 13 -9.5 30.5t-9.5 34.5q-5 19 -11 39h-368zM336 498v228q0 11 2.5 23t10 21.5t20.5 15.5t34 6h188q31 0 51.5 -14.5t20.5 -52.5v-227h-327z" />
    

    
    <glyph glyph-name="yue" unicode="&#58904;" d="M921.9197 639.4189c0 21.2036-13.7422 51.3882-79.2105 74.7703C797.2721 730.4172 737.2034 739.3541 673.5689 739.3541s-123.7042-8.9369-169.1423-25.1659c-65.4663-23.3821-79.2085-53.5667-79.2085-74.7703 0-3.2658 0.3278-6.7454 1.1193-10.379-0.7115-1.9047-1.1193-3.9563-1.1193-6.1089v-98.93792009017885c0-3.2658 0.3278-6.7454 1.1193-10.38-0.7115-1.9037-1.1193-3.9563-1.1193-6.1089v-53.58367027155588c-25.8126 3.3597-53.2801 5.1145-81.4511 5.1145-63.6365 0-123.7062-8.9369-169.1423-25.1659-65.4673-23.3821-79.2095-53.5677-79.2095-74.7713 0-3.2658 0.3278-6.7454 1.1193-10.379-0.7115-1.9047-1.1193-3.9563-1.1193-6.1089v-98.93792009017885c0-3.2658 0.3278-6.7454 1.1193-10.38-0.7115-1.9037-1.1193-3.9563-1.1193-6.1089v-98.93792009017885c0-3.2658 0.3278-6.7444 1.1193-10.379-0.7115-1.9037-1.1193-3.9573-1.1193-6.1089v-98.93792009017885c0-21.1996 13.7412-51.3792 79.2085-74.7633 45.4421-16.231 105.5118-25.1709 169.1433-25.1709 63.6305 0 123.7002 8.9389 169.1423 25.1709 65.4673 23.3841 79.2095 53.5647 79.2095 74.7633V82.90618960344887c25.9894-3.4007 53.2891-5.1285 81.4511-5.1285 63.6305 0 123.6992 8.9389 169.1423 25.1719 65.4673 23.3851 79.2095 53.5647 79.2095 74.7633v98.93792009017885c0 2.1515-0.4077 4.2051-1.1183 6.1089 0.7905 3.6345 1.1183 7.1132 1.1183 10.379v98.93792009017885c0 2.1525-0.4077 4.2051-1.1183 6.1089 0.7905 3.6345 1.1183 7.1132 1.1183 10.379v98.93792009017885c0 2.1525-0.4077 4.2051-1.1183 6.1089 0.7905 3.6345 1.1183 7.1142 1.1183 10.38V622.9300534237786c0 2.1525-0.4077 4.2051-1.1183 6.1089C921.5919 632.6734 921.9197 636.1531 921.9197 639.4189zM886.942 293.1397c0-10.0672-14.6657-27.0617-55.9983-41.8256-41.7624-14.9179-97.6528-23.1323-157.3758-23.1323-28.5768 0-56.2492 1.8827-82.4695 5.5902 0.7175 3.4607 1.0194 6.7784 1.0194 9.9003v70.0824840757966c25.9984-3.3967 53.2781-5.1215 81.4511-5.1215 63.6305 0 123.6992 8.9389 169.1423 25.1709 18.6511 6.6625 33.0989 13.8756 44.2318 21.2766V293.1396513164075zM557.1401 305.6112v-61.940004676829105c0-10.0662-14.6657-27.0607-55.9973-41.8256-41.7634-14.9179-97.6528-23.1323-157.3758-23.1323-59.724 0-115.6144 8.2154-157.3778 23.1323-41.3317 14.764-55.9973 31.7575-55.9973 41.8256v61.93900535436973c11.1329-7.4 25.5807-14.6141 44.2308-21.2756 45.4421-16.232 105.5118-25.1709 169.1433-25.1709 63.6305 0 123.6992 8.9389 169.1423 25.1709C531.5594 290.9971 546.0072 298.2102 557.1401 305.6112zM130.3919 190.1835c11.1329-7.4 25.5797-14.6141 44.2308-21.2756 45.4431-16.232 105.5128-25.1709 169.1433-25.1709 63.6305 0 123.6992 8.9389 169.1423 25.1709 18.6511 6.6625 33.0989 13.8766 44.2318 21.2766v-61.940004676829105c0-10.0672-14.6657-27.0617-55.9973-41.8256-41.7624-14.9179-97.6528-23.1323-157.3758-23.1323-59.724 0-115.6144 8.2154-157.3778 23.1323-41.3317 14.763-55.9973 31.7575-55.9973 41.8256V190.18345561709157zM886.942 523.9921c0-10.0672-14.6657-27.0617-55.9983-41.8256-41.7624-14.9179-97.6528-23.1323-157.3758-23.1323-59.724 0-115.6144 8.2154-157.3768 23.1323-41.3317 14.763-55.9973 31.7575-55.9973 41.8256v61.93900535436973c11.1329-7.4 25.5807-14.6141 44.2308-21.2766 45.4421-16.232 105.5108-25.1709 169.1423-25.1709 63.6305 0 123.6992 8.9389 169.1423 25.1709 18.6511 6.6625 33.0989 13.8756 44.2318 21.2766V523.9921333335999zM516.1922 681.2505c41.7574 14.9139 97.6478 23.1273 157.3768 23.1273 59.728 0 115.6184-8.2134 157.3768-23.1273 41.3317-14.762 55.9973-31.7605 55.9973-41.8316 0-10.0672-14.6657-27.0617-55.9983-41.8246-41.7624-14.9179-97.6528-23.1323-157.3758-23.1323-59.724 0-115.6144 8.2154-157.3768 23.1323-41.3317 14.763-55.9973 31.7575-55.9973 41.8246C460.1949 649.49 474.8605 666.4885 516.1922 681.2505zM460.1949 470.5054c11.1329-7.4 25.5807-14.6141 44.2308-21.2766 45.4421-16.232 105.5108-25.1709 169.1423-25.1709 63.6305 0 123.6992 8.9389 169.1423 25.1709 18.6511 6.6625 33.0989 13.8756 44.2318 21.2766v-61.93900535436973c0-10.0672-14.6657-27.0617-55.9983-41.8246-41.7624-14.9179-97.6528-23.1323-157.3758-23.1323-28.239 0-56.3501 1.9257-82.4685 5.5972 0.7165 3.4577 1.0174 6.7724 1.0174 9.8913 0 21.2046-13.7422 51.3892-79.2095 74.7713-15.9299 5.6891-33.6636 10.4789-52.7134 14.3053V470.50539734060305zM186.3883 400.9306c41.7574 14.9139 97.6488 23.1283 157.3778 23.1283 59.728 0 115.6184-8.2134 157.3758-23.1283 41.3317-14.762 55.9973-31.7615 55.9973-41.8336 0-10.0672-14.6657-27.0607-55.9973-41.8246-41.7634-14.9179-97.6528-23.1333-157.3758-23.1333-59.724 0-115.6144 8.2154-157.3778 23.1333-41.3317 14.763-55.9973 31.7575-55.9973 41.8246C130.3919 369.1691 145.0576 386.1686 186.3883 400.9306zM501.1418-29.0069c-41.7624-14.9179-97.6528-23.1323-157.3758-23.1323-59.724 0-115.6154 8.2154-157.3778 23.1323-41.3317 14.763-55.9973 31.7575-55.9973 41.8256v61.93800603191036c11.1329-7.4 25.5807-14.6141 44.2308-21.2756 45.4421-16.232 105.5118-25.1709 169.1433-25.1709 63.6305 0 123.6992 8.9389 169.1423 25.1709 18.6511 6.6625 33.0989 13.8766 44.2318 21.2766v-61.93900535436973C557.1401 2.7515 542.4744-14.2429 501.1418-29.0069zM830.9437 135.8873c-41.7624-14.9179-97.6528-23.1333-157.3758-23.1333-28.6757 0-56.3431 1.8837-82.4695 5.5902 0.7175 3.4617 1.0194 6.7784 1.0194 9.9003v70.0904786554716c26.0694-3.4027 53.374-5.1305 81.4511-5.1305 63.6305 0 123.6992 8.9389 169.1423 25.1709 18.6511 6.6625 33.0989 13.8766 44.2318 21.2766v-61.93800603191036C886.942 167.6467 872.2774 150.6523 830.9437 135.8873z"  horiz-adv-x="1000" />

    
    <glyph glyph-name="fenyeshangyiye" unicode="&#58896;" d="M889.1914-143.2978c0-5.4016-2.8621-10.6404-7.9217-13.44-5.0616-2.7996-11.0193-2.4453-15.5955 0.426L191.0886 266.5838c-4.3295 2.7126-7.1997 7.5305-7.1997 13.014s2.8733 10.3014 7.1987 13.014L865.6732 715.5085c4.5773 2.8703 10.5339 3.2246 15.5955 0.426 5.0596-2.8006 7.9217-8.0384 7.9217-13.44V-143.29779200000007L889.1914-143.2978z"  horiz-adv-x="1024" />

    
    <glyph glyph-name="weibiaoti111" unicode="&#58927;" d="M589.447111 133.777778c34.211556-3.136 62.535111-8.263111 82.332444-14.542222 24.888889-7.886222 38.983111-19.278222 38.983111-33.152 0-17.543111-24.718222-31.402667-64.568889-39.608889-34.289778-7.054222-81.294222-11.441778-132.778667-11.441778s-98.503111 4.387556-132.792889 11.441778c-39.850667 8.206222-64.554667 22.072889-64.554667 39.608889 0 13.873778 14.08 25.265778 38.968889 33.152 19.804444 6.279111 48.135111 11.406222 82.346667 14.542222 6.520889 0.597333 13.041778 1.194667 14.222222-11.804444 1.173333-12.999111-5.347556-13.596444-11.875556-14.193778-32.056889-2.944-58.474667-7.708444-76.814222-13.511111-13.184-4.181333-20.650667-7.096889-20.650667-8.177778 0-3.363556 16.682667-8.469333 43.576889-14.016 32.455111-6.691556 77.575111-10.830222 127.566222-10.830222 49.984 0 95.104 4.138667 127.559111 10.830222 26.894222 5.539556 43.576889 10.652444 43.576889 14.016 0 1.080889-7.473778 4.003556-20.650667 8.177778-18.339556 5.802667-44.764444 10.567111-76.821333 13.511111-6.520889 0.597333-13.041778 1.194667-11.861333 14.193778C576.398222 134.972444 582.919111 134.375111 589.447111 133.777778M513.415111 562.158222c-91.335111 0-165.816889-74.488889-165.816889-165.816889 0-34.951111 10.915556-67.413333 29.496889-94.200889l136.32-215.196444 136.32 215.196444c18.574222 26.780444 29.489778 59.249778 29.489778 94.200889C679.232 487.669333 604.750222 562.158222 513.415111 562.158222zM513.415111 325.777778c-38.869333 0-70.556444 31.687111-70.556444 70.556444 0 38.862222 31.687111 70.549333 70.556444 70.549333 38.862222 0 70.549333-31.687111 70.549333-70.549333C583.964444 357.472 552.277333 325.777778 513.415111 325.777778z"  horiz-adv-x="1024" />

    
    <glyph glyph-name="gouwuche" unicode="&#59081;" d="M753.429-27.004c-43.1 0-78.042-33.971-78.042-77.377 0-43.431 34.942-78.61 78.042-78.61 43.097 0 78.041 35.18 78.041 78.61C831.47-60.974 796.526-27.004 753.429-27.004zM328.326-27.004c-43.123 0-75.671-32.76-75.671-76.168 0-43.429 32.549-78.61 75.671-78.61 43.099 0 78.041 35.182 78.041 78.61C406.367-59.763 371.425-27.004 328.326-27.004zM1022.804 282.058l-0.829 268.522c0 0-3.889 80.815-73.537 80.815L210.931 630.4l-16.262 39.637c0 0-16.453 117.963-95.727 117.963 0 0-95.75 0-95.75-116.185l80.294 0.118c0 0 98.333-565.8 98.333-582.846 0-21.383 17.165-77.377 38.405-77.377l725.369 0c21.218 0 38.404 36.649 38.404 58.009 0 21.384-17.187 58.058-38.404 58.058L273.067 127.777l-19.084 77.165 693.651 3.058C947.634 207.999 1022.804 207.098 1022.804 282.058zM330.697 321.245c0-21.36-17.187-38.689-38.405-38.689l-1.208 0c-21.217 0-38.428 17.329-38.428 38.689l0 38.689c0 21.383 17.211 38.712 38.428 38.712l1.208 0c21.218 0 38.405-17.33 38.405-38.712L330.697 321.245zM330.697 476.024c0-21.36-17.187-38.688-38.405-38.688L253.84 437.336c-21.193 0-38.404 17.329-38.404 38.688l0 38.712c0 21.36 17.211 38.689 38.404 38.689l38.452 0c21.218 0 38.405-17.329 38.405-38.689L330.697 476.024zM484.432 321.245c0-21.36-17.211-38.689-38.428-38.689l-38.452 0c-21.193 0-38.404 17.329-38.404 38.689l0 38.689c0 21.383 17.211 38.712 38.404 38.712l38.452 0c21.217 0 38.428-17.33 38.428-38.712L484.432 321.245zM484.432 476.024c0-21.36-17.211-38.688-38.428-38.688l-38.452 0c-21.193 0-38.404 17.329-38.404 38.688l0 38.712c0 21.36 17.211 38.689 38.404 38.689l38.452 0c21.217 0 38.428-17.329 38.428-38.689L484.432 476.024zM638.145 321.245c0-21.36-17.212-38.689-38.427-38.689l-38.43 0c-21.217 0-38.428 17.329-38.428 38.689l0 38.689c0 21.383 17.211 38.712 38.428 38.712l38.43 0c21.215 0 38.427-17.33 38.427-38.712L638.145 321.245zM638.145 476.024c0-21.36-17.212-38.688-38.427-38.688l-38.43 0c-21.217 0-38.428 17.329-38.428 38.688l0 38.712c0 21.36 17.211 38.689 38.428 38.689l38.43 0c21.215 0 38.427-17.329 38.427-38.689L638.145 476.024zM791.858 321.245c0-21.36-17.212-38.689-38.429-38.689l-38.428 0c-21.217 0-38.429 17.329-38.429 38.689l0 38.689c0 21.383 17.212 38.712 38.429 38.712l38.428 0c21.217 0 38.429-17.33 38.429-38.712L791.858 321.245zM791.858 476.024c0-21.36-17.212-38.688-38.429-38.688l-38.428 0c-21.217 0-38.429 17.329-38.429 38.688l0 38.712c0 21.36 17.212 38.689 38.429 38.689l38.428 0c21.217 0 38.429-17.329 38.429-38.689L791.858 476.024zM945.571 321.245c0-21.36-17.211-38.689-38.43-38.689l-38.428 0c-21.218 0-38.429 17.329-38.429 38.689l0 38.689c0 21.383 17.211 38.712 38.429 38.712l38.428 0c21.219 0 38.43-17.33 38.43-38.712L945.571 321.245zM945.571 476.024c0-21.36-17.211-38.688-38.43-38.688l-38.428 0c-21.218 0-38.429 17.329-38.429 38.688l0 38.712c0 21.36 17.211 38.689 38.429 38.689l38.428 0c21.219 0 38.43-17.329 38.43-38.689L945.571 476.024z"  horiz-adv-x="1029" />

    
    <glyph glyph-name="add" unicode="&#58882;" d="M512-212c-282.752 0-512 229.248-512 512s229.248 512 512 512 512-229.248 512-512S794.752-212 512-212zM512 684C299.968 684 128 512.032 128 300s171.968-384 384-384 384 171.968 384 384S724.032 684 512 684zM704 236 576 236l0-128c0-35.392-28.608-64-64-64-35.328 0-64 28.608-64 64L448 236 320 236C284.672 236 256 264.608 256 300c0 35.328 28.672 64 64 64l128 0L448 492c0 35.328 28.672 64 64 64 35.392 0 64-28.672 64-64l0-128 128 0c35.392 0 64-28.672 64-64C768 264.608 739.392 236 704 236z"  horiz-adv-x="1024" />

    
    <glyph glyph-name="xinxi" unicode="&#59275;" d="M952.052364 591.338345 70.718645 591.338345l0.852414-0.854461 0-581.127404 880.206036 0L951.777095 591.063075 952.052364 591.338345zM510.86413 150.152157 648.306432 287.593436l251.668857-247.537769-775.788895 0 249.532193 247.567445L510.86413 150.152157zM510.890736 193.592528 144.921647 560.427334l732.803895 0L510.890736 193.592528zM352.036775 309.355065 102.270245 61.556353l0 498.15569L352.036775 309.355065zM921.078932 62.359648 670.01485 309.301853l251.064083 251.063059L921.078932 62.359648z"  horiz-adv-x="1024" />

    
    <glyph glyph-name="gengduo" unicode="&#58905;" d="M95.979982 300m-95.958492 0a93.773 93.773 0 1 0 191.916984 0 93.773 93.773 0 1 0-191.916984 0ZM512 300m-95.958492 0a93.773 93.773 0 1 0 191.916984 0 93.773 93.773 0 1 0-191.916984 0ZM927.412175 300m-95.958492 0a93.773 93.773 0 1 0 191.916984 0 93.773 93.773 0 1 0-191.916984 0Z"  horiz-adv-x="1024" />

    
    <glyph glyph-name="fuwu" unicode="&#59268;" d="M868.46 210.358c-4.949 8.572-14.164 13.149-23.416 12.597L685.183 222.955c-4.799 0-9.284-1.336-13.104-3.657-4.265-2.139-7.974-5.507-10.539-9.948L581.391 70.53c-3.669-6.355-4.265-13.642-2.249-20.139 0.559-1.94 1.359-3.847 2.414-5.675l77.398-134.055c2.978-10.645 12.752-18.45 24.35-18.449l160.029-0.001c9.825-1.284 19.911 3.314 25.175 12.433l79.285 137.32c1.856 3.215 2.926 6.665 3.27 10.132 1.766 6.318 1.085 13.313-2.453 19.441L868.46 210.358zM822.316-42.412 706.827-42.412l-57.503 99.542 57.32 99.225 115.544 0 57.477-99.493L822.316-42.412zM660.106 395.032c3.412-9.912 12.81-17.032 23.868-17.032l161.379 0c0.891 0 1.771 0.046 2.637 0.136 8.327 0.365 16.296 4.849 20.77 12.606l78.828 136.665c1.723 2.986 2.767 6.179 3.18 9.397 2.122 6.564 1.565 13.967-2.151 20.412L868.928 695.37c-5.055 8.764-14.572 13.349-24.026 12.538L686.3 707.908c-4.924 0-9.519-1.411-13.403-3.849-4.366-2.129-8.166-5.54-10.775-10.065l-79.688-138.155c-2.118-3.673-3.21-7.658-3.366-11.621-0.354-4.869 0.696-9.894 3.318-14.44L660.106 395.032zM707.825 642.564l116.136 0 57.395-99.108-57.645-99.538L707.636 443.918l-57.425 99.159L707.825 642.564zM596.32 246.048l0.03 104.354c-17.28-0.128-34.792 4.201-50.796 13.441-48.278 27.874-64.649 89.865-36.583 138.478l-90.324 52.129c-8.549-15.066-21.071-28.138-37.13-37.391-48.239-27.871-110.049-11.121-138.115 37.378l-90.374-52.193c8.719-14.895 13.734-32.217 13.717-50.712-0.004-55.625-45.277-100.74-101.2-100.973l-0.028-104.355c17.197 0.081 34.606-4.263 50.525-13.454 48.126-27.785 64.542-89.467 36.845-137.991l90.332-52.153c8.537 14.886 20.974 27.745 36.861 36.929 48.157 27.823 109.841 11.185 137.969-37.146l90.374 52.194c-8.641 14.833-13.59 32.078-13.585 50.486C494.856 200.781 540.285 245.974 596.32 246.048zM438.623 235.916c-34.241-59.309-110.159-79.577-169.572-45.275-59.415 34.304-79.819 110.185-45.578 169.492 34.242 59.309 110.16 79.579 169.574 45.275C452.46 371.106 472.864 295.225 438.623 235.916z"  horiz-adv-x="1024" />

    
    <glyph glyph-name="guanlidizhi" unicode="&#58917;" d="M512 812C314.0864 812 153.6 648.2624 153.6 446.3296c0-77.4144 23.6544-149.1712 63.8464-208.256 1.8944-3.3536 3.712-6.656 5.9904-9.6768l244.1984-313.7536c12.2624-16.1536 28.3136-24.1664 44.3648-24.1664 16.0512 0 32.128 8.0128 44.3392 24.1664l244.1984 313.7536c2.2528 2.944 4.0448 6.1952 5.8624 9.4464C846.6688 297.0304 870.4 368.8128 870.4 446.3296 870.4 648.2624 709.9392 812 512 812L512 812zM747.5456 279.5712l-1.8176-2.6624-1.536-2.7648-1.2032-2.0736L512-24.7616l-230.9632 296.7552-1.4336 2.5088-1.536 2.7136-1.7408 2.56C242.9184 328.8512 225.28 386.4768 225.28 446.3296 225.28 607.6608 353.8944 738.8608 512 738.8608s286.72-131.2 286.72-292.5312C798.72 386.4768 781.0048 328.7744 747.5456 279.5712L747.5456 279.5712zM512 592.5824c-79.1808 0-143.36-65.5104-143.36-146.304C368.64 365.5104 432.8192 300 512 300c79.2064 0 143.36 65.5104 143.36 146.2784C655.36 527.072 591.2064 592.5824 512 592.5824L512 592.5824zM512 373.1392c-39.5264 0-71.68 32.7936-71.68 73.1136s32.1536 73.1392 71.68 73.1392c39.5008 0 71.68-32.8192 71.68-73.1392S551.5008 373.1392 512 373.1392L512 373.1392zM704.2048-27.0912c21.1456-12.8512 33.6128-27.9808 33.6128-44.16 0-46.6688-101.0944-84.4544-225.792-84.4544-124.7232 0-225.8176 37.7856-225.8176 84.4544 0 16.1792 12.4672 31.3088 33.6384 44.16-36.5824-19.584-58.6752-44.8-58.6752-72.2944C261.12-161.568 373.4272-212 512-212c138.5216 0 250.88 50.432 250.88 112.5888C762.88-71.8912 740.7616-46.6752 704.2048-27.0912L704.2048-27.0912zM704.2048-27.0912"  horiz-adv-x="1024" />

    
    <glyph glyph-name="kefu" unicode="&#59014;" d="M510.099209 633.690942c-138.999774 0-251.6576-110.293989-251.6576-246.382457 0-136.073118 112.657826-246.38041 251.6576-246.38041 139.003867 0 251.661693 110.307292 251.661693 246.38041C761.760902 523.396953 649.103076 633.690942 510.099209 633.690942L510.099209 633.690942zM219.507878 292.733503 219.507878 520.199121c-3.185552 0-6.344498-0.12996-9.464559-0.378623C261.613858 631.773266 376.472815 709.742035 510.138094 709.742035c133.662209 0 248.52526-77.968769 300.091706-189.921537-3.120061 0.248663-6.274914 0.378623-9.463536 0.378623l0-227.465618c64.189951 0 116.259864 50.92688 116.259864 113.729228 0 42.654472-24.019043 79.818907-59.533908 99.285261C807.513946 646.523201 671.07346 747.636087 510.138094 747.636087c-160.933319 0-297.366641-101.104699-347.349009-241.874793-35.527145-19.463284-59.538001-56.635905-59.538001-99.29447C103.251084 343.660382 155.283134 292.733503 219.507878 292.733503L219.507878 292.733503zM761.230829 162.336664c-65.760726-60.08547-154.046468-96.875374-251.130597-96.875374-96.90198 0-185.040367 36.654828-250.761184 96.540753C141.71614 102.746474 64.495408-2.71751 64.495408-145.99061l894.267287 0C958.762695-2.453497 880.097054 103.142493 761.230829 162.336664L761.230829 162.336664zM761.230829 162.336664"  horiz-adv-x="1024" />

    
    <glyph glyph-name="shouqi" unicode="&#58991;" d="M891.986849 625.582263c0-2.825348-2.290159-5.116531-5.116531-5.116531l-753.153362 0c-2.825348 0-5.116531 2.291183-5.116531 5.116531l0 55.258535c0 2.825348 2.291183 5.116531 5.116531 5.116531l753.153362 0c2.826372 0 5.116531-2.291183 5.116531-5.116531L891.986849 625.582263zM891.986849 275.611543c0-2.826372-2.290159-5.116531-5.116531-5.116531l-753.153362 0c-2.825348 0-5.116531 2.290159-5.116531 5.116531l0 55.258535c0 2.825348 2.291183 5.116531 5.116531 5.116531l753.153362 0c2.826372 0 5.116531-2.291183 5.116531-5.116531L891.986849 275.611543zM891.986849-74.359176c0-2.826372-2.290159-5.116531-5.116531-5.116531l-753.153362 0c-2.825348 0-5.116531 2.290159-5.116531 5.116531l0 55.258535c0 2.826372 2.291183 5.116531 5.116531 5.116531l753.153362 0c2.826372 0 5.116531-2.290159 5.116531-5.116531L891.986849-74.359176z"  horiz-adv-x="1024" />

    
    <glyph glyph-name="money" unicode="&#59041;" d="M706.56 379.904c-30.72 36.864-90.112 77.824-173.056 116.736L533.504 729.088c10.24-2.048 24.576-9.216 37.888-15.36L686.08 626.688l23.552 0L709.632 760.832c-75.776 15.36-136.192 24.576-176.128 27.648l0 102.4-45.056 0 0-102.4c-57.344-5.12-105.472-22.528-144.384-51.2-44.032-36.864-65.536-82.944-65.536-137.216 0-56.32 16.384-101.376 52.224-134.144 32.768-30.72 83.968-63.488 150.528-94.208 2.048-1.024 6.144-3.072 7.168-5.12l0-332.8c-8.192-1.024-17.408-2.048-27.648-2.048-19.456 0-35.84 6.144-52.224 17.408l-118.784 86.016-22.528 0 0-133.12c75.776-15.36 139.264-24.576 186.368-24.576 12.288 0 23.552 1.024 34.816 1.024l0-101.376 45.056 0L533.504-16.384c58.368 8.192 107.52 28.672 145.408 58.368 51.2 44.032 76.8 106.496 76.8 183.296C755.712 287.744 738.304 340.992 706.56 379.904zM488.448 516.096c-9.216 5.12-20.48 9.216-28.672 13.312-12.288 5.12-22.528 12.288-29.696 16.384-35.84 19.456-52.224 50.176-52.224 92.16 0 23.552 9.216 45.056 28.672 64.512 20.48 16.384 47.104 28.672 81.92 30.72L488.448 516.096zM533.504 44.032 533.504 344.064c23.552-14.336 44.032-27.648 54.272-37.888 28.672-29.696 44.032-68.608 44.032-115.712C631.808 114.688 596.992 65.536 533.504 44.032z"  horiz-adv-x="1024" />

    
    <glyph glyph-name="jiatingbaoxiu" unicode="&#58893;" d="M944.064948 478.431719 821.993728 583.704344 821.993728 748.332822c-63.772442 77.648474-111.991654-4.480035-111.991654-4.480035l0-60.476373L582.328253 794.249595c-74.969459 75.407434-146.709363 0-146.709363 0S189.981401 580.365296 107.482455 509.788891c-95.128591-81.380472-7.839549-121.510448-7.839549-121.510448l89.638553-43.855834 1.075495-152.690588-76.155471-69.435419c-53.756321-78.394465 14.559601-142.229329 14.559601-142.229329 96.312556-96.314603 187.026604 12.317537 187.026604 12.317537l465.887776 0c39.197744 5.600555 45.916772 57.116859 45.916772 57.116859l3.359514 287.819195 107.512642 50.395784C985.501686 431.393403 944.064948 478.431719 944.064948 478.431719zM748.723981 731.071693l37.862329 0 0-113.842815-37.862329 38.629809L748.723981 731.071693zM264.858762 4.442428c0 0-44.236504-53.197596-97.432053 0 0 0-43.677778 39.197744 0 87.352487l212.785268 212.785268c0 0-18.980283 180.867324 155.668409 173.262112l3.359514-32.152281-62.715367-59.355853 78.394465-82.873476 71.675436 64.956408 31.357172-6.719028c0 0 14.619976-173.574221-181.426049-151.189398L264.858762 4.442428zM894.85313 412.729322l-107.512642-48.157813-7.838525-281.101189c-2.238994-53.755298-34.716686-54.874795-34.716686-54.874795L360.649432 28.595524l131.031289 131.031289c269.321912-2.629897 202.724121 233.786581 202.724121 233.786581l-82.96148 10.287297-52.364625-48.51597-27.366278 29.701462 50.990325 48.096415-9.476839 90.356914c-261.113973 26.2652-245.054205-199.087291-245.054205-199.087291l-94.073562-92.953042 1.119497 146.710386-83.995019 38.0762c-48.155766 20.160155-5.599532 61.596893-5.599532 61.596893l304.619836 271.022647c61.754482 59.355853 118.711705 2.238994 118.711705 2.238994l325.897442-294.54027C932.931377 430.648436 894.85313 412.729322 894.85313 412.729322z"  horiz-adv-x="1024" />

    
    <glyph glyph-name="jiejuefangan" unicode="&#58953;" d="M738.189555 331.599559c-87.367837 0-158.193929-70.825069-158.193929-158.192905s70.825069-158.192905 158.193929-158.192905 158.192905 70.825069 158.192905 158.192905S825.557392 331.599559 738.189555 331.599559zM831.886541 212.331175 717.231221 97.675856c-7.936763-7.936763-20.700461-7.933693-28.634154 0l-46.471404 46.471404c-7.930623 7.930623-7.93574 20.698414 0 28.634154 7.933693 7.933693 20.703531 7.930623 28.634154 0l32.153304-32.153304 100.337219 100.337219c7.936763 7.936763 20.695345 7.938809 28.634154-0.001023C839.820234 233.031637 839.823304 220.267938 831.886541 212.331175L831.886541 212.331175zM909.946384 722.64272c0 39.623439-34.669614 74.29203-74.293053 74.29203L241.323231 796.93475c-39.623439 0-74.29203-34.669614-74.29203-74.29203l0-643.85812c0-39.623439 34.669614-74.293053 74.29203-74.293053l305.492716 0c0.663102-0.044002 1.330298-0.073678 2.004657-0.073678 16.671705 0 30.187533 13.515828 30.187533 30.187533 0 16.143679-12.672624 29.327956-28.612665 30.146601l0.001023 0.076748L227.367381 64.82875 227.367381 738.534665l622.242823 0 0-375.537002c-0.036839-0.610914-0.061398-1.225921-0.061398-1.847068s0.024559-1.235131 0.061398-1.847068l0-0.38067 0.028653 0c1.140986-15.631002 14.174837-27.960819 30.097482-27.960819 16.147772 0 29.335119 12.679787 30.147624 28.625968l0.062422 0.001023L909.946384 722.64272zM535.711028 353.031685c0 9.971096-8.265244 18.159592-18.178011 18.159592L343.961866 371.191276c-9.909697 0-18.179035-8.18952-18.179035-18.159592 0-9.890254 8.269337-18.155499 18.179035-18.155499l173.571151 0C527.445784 334.876186 535.711028 343.14143 535.711028 353.031685zM343.961866 257.330042c-9.909697 0-18.179035-8.18952-18.179035-18.159592 0-9.889231 8.269337-18.155499 18.179035-18.155499l91.657536 0c9.912767 0 18.178011 8.265244 18.178011 18.155499 0 9.971096-8.265244 18.159592-18.178011 18.159592L343.961866 257.330042zM633.838929 485.053534 343.961866 485.053534c-9.909697 0-18.179035-8.192589-18.179035-18.158568 0-9.890254 8.269337-18.159592 18.179035-18.159592l289.877063 0c9.890254 0 18.159592 8.270361 18.159592 18.159592C651.998521 476.860944 643.72816 485.053534 633.838929 485.053534zM723.94411 598.912721 343.961866 598.912721c-9.909697 0-18.179035-8.265244-18.179035-18.154475 0-9.891278 8.269337-18.159592 18.179035-18.159592l379.982244 0c9.890254 0 18.159592 8.269337 18.159592 18.159592C742.103702 590.647477 733.833341 598.912721 723.94411 598.912721z"  horiz-adv-x="1024" />

    
    <glyph glyph-name="jiejuefangan1" unicode="&#58958;" d="M738.189555 331.599559c-87.367837 0-158.193929-70.825069-158.193929-158.192905s70.825069-158.192905 158.193929-158.192905 158.192905 70.825069 158.192905 158.192905S825.557392 331.599559 738.189555 331.599559zM831.886541 212.331175 717.231221 97.675856c-7.936763-7.936763-20.700461-7.933693-28.634154 0l-46.471404 46.471404c-7.930623 7.930623-7.93574 20.698414 0 28.634154 7.933693 7.933693 20.703531 7.930623 28.634154 0l32.153304-32.153304 100.337219 100.337219c7.936763 7.936763 20.695345 7.938809 28.634154-0.001023C839.820234 233.031637 839.823304 220.267938 831.886541 212.331175L831.886541 212.331175zM909.946384 722.64272c0 39.623439-34.669614 74.29203-74.293053 74.29203L241.323231 796.93475c-39.623439 0-74.29203-34.669614-74.29203-74.29203l0-643.85812c0-39.623439 34.669614-74.293053 74.29203-74.293053l305.492716 0c0.663102-0.044002 1.330298-0.073678 2.004657-0.073678 16.671705 0 30.187533 13.515828 30.187533 30.187533 0 16.143679-12.672624 29.327956-28.612665 30.146601l0.001023 0.076748L227.367381 64.82875 227.367381 738.534665l622.242823 0 0-375.537002c-0.036839-0.610914-0.061398-1.225921-0.061398-1.847068s0.024559-1.235131 0.061398-1.847068l0-0.38067 0.028653 0c1.140986-15.631002 14.174837-27.960819 30.097482-27.960819 16.147772 0 29.335119 12.679787 30.147624 28.625968l0.062422 0.001023L909.946384 722.64272zM309.389466 392.320503 309.389466 392.320503c-9.909697 0-18.179035 8.266267-18.179035 18.155499 0 9.970072 8.269337 18.159592 18.179035 18.159592l359.924419 0c9.912767 0 18.178011-8.188496 18.178011-18.159592 0-9.890254-8.265244-18.155499-18.178011-18.155499L309.389466 392.320503 309.389466 392.320503 309.389466 392.320503 309.389466 392.320503zM309.389466 476.592838 309.389466 476.592838c-9.909697 0-18.179035 8.269337-18.179035 18.159592 0 9.965979 8.269337 18.158568 18.179035 18.158568l250.967892 0c9.890254 0 18.159592-8.192589 18.159592-18.158568 0-9.890254-8.269337-18.159592-18.159592-18.159592L309.389466 476.592838 309.389466 476.592838 309.389466 476.592838 309.389466 476.592838zM309.389466 308.045097 309.389466 308.045097c-9.909697 0-18.179035 8.269337-18.179035 18.159592 0 9.965979 8.269337 18.158568 18.179035 18.158568l169.054277 0c9.890254 0 18.159592-8.192589 18.159592-18.158568 0-9.890254-8.269337-18.159592-18.159592-18.159592L309.389466 308.045097 309.389466 308.045097 309.389466 308.045097 309.389466 308.045097zM309.389466 560.868243 309.389466 560.868243c-9.909697 0-18.179035 8.268314-18.179035 18.159592 0 9.889231 8.269337 18.154475 18.179035 18.154475l435.273525 0c9.889231 0 18.159592-8.265244 18.159592-18.154475 0-9.890254-8.269337-18.159592-18.159592-18.159592L309.389466 560.868243 309.389466 560.868243 309.389466 560.868243 309.389466 560.868243z"  horiz-adv-x="1024" />

    
    <glyph glyph-name="follow" unicode="&#59243;" d="M1024.091 382.098c0-0.439 0-0.878-0.073-1.317 0-0.219 0-0.439-0.073-0.731-0.073-0.366-0.073-0.658-0.073-0.951-0.146-0.366-0.146-0.731-0.293-1.097 0 0 0 0 0-0.146-1.317-8.119-4.827-15.726-10.679-21.577-10.752-13.239-22.528-25.6-34.377-37.595-63.781-65.317-136.997-123.392-217.234-165.669-51.127-26.917-105.911-48.64-162.743-59.246-62.464-11.483-124.928-10.825-187.026 2.633-107.52 23.552-204.873 81.92-289.938 151.845-39.278 32.549-78.19 68.096-110.885 108.032-14.263 17.262-14.263 38.034 0 55.515 10.752 13.093 22.528 25.381 34.304 37.522 63.854 65.243 137.070 123.465 217.234 165.669 51.127 26.843 105.911 48.713 162.743 59.099 62.391 11.557 124.855 10.898 187.026-2.633 107.52-23.552 204.727-81.92 289.865-151.771 39.497-32.402 78.336-67.95 111.104-107.813 5.705-5.925 9.435-13.678 10.679-21.723 0 0 0-0.073 0-0.146 0.073-0.293 0.146-0.658 0.146-1.17 0.073-0.366 0.073-0.585 0.073-0.951 0.073-0.219 0.219-0.439 0.219-0.658 0-0.439 0.073-0.878 0.073-1.39 0-0.731 0.073-1.39 0.073-1.902s-0.073-1.243-0.146-1.829zM512.165 585.435c-106.057 0-192-86.528-192-193.317 0-106.715 85.943-193.39 192-193.39 105.911 0 192 86.674 192 193.39 0 106.789-86.016 193.317-192 193.317zM512.165 295.424c-53.102 0-96.037 43.227-96.037 96.695 0 53.321 43.008 96.549 96.037 96.549 53.029 0 95.963-43.301 95.963-96.549 0-53.467-42.935-96.695-95.963-96.695z"  horiz-adv-x="1025" />

    
    <glyph glyph-name="gou" unicode="&#59320;" d="M1015.476371 626.026242c0 0-163.133428-56.354496-348.136955-265.37195C492.739842 163.38951 452.98542 85.038024 382.7201-20.9151c0 0-103.174847 195.677635-371.784538 339.764264L149.154553 451.053162c0 0 130.389676-90.399893 217.554898-247.830435 0 0 222.35932 345.100806 648.765897 508.736677L1015.475348 626.026242z"  horiz-adv-x="1024" />

    
    <glyph glyph-name="ios" unicode="&#58899;" d="M836.608 220.16q41.984-59.392 96.256-76.8-23.552-72.704-74.752-151.552-78.848-118.784-155.648-118.784-28.672 0-84.992 19.456-52.224 19.456-91.136 19.456t-86.016-20.48q-49.152-19.456-80.896-19.456-92.16 0-181.248 156.672-89.088 154.624-89.088 304.128 0 138.24 67.584 226.304 69.632 88.064 172.032 88.064 22.528 0 50.176-5.632t57.344-20.992q31.744-17.408 52.224-24.064t31.744-6.656q13.312 0 40.96 6.144t55.296 22.528q29.696 16.384 51.2 24.576t44.032 8.192q71.68 0 129.024-38.912 30.72-20.48 62.464-60.416-47.104-40.96-68.608-71.68-39.936-57.344-39.936-124.928 0-74.752 41.984-135.168zM630.784 698.368q-35.84-33.792-65.536-44.032-10.24-3.072-26.112-5.632t-36.352-4.608q1.024 90.112 47.104 155.648t151.552 90.112q2.048-10.24 3.072-14.336v-11.264q0-36.864-17.408-82.944-18.432-45.056-56.32-82.944z"  horiz-adv-x="1024" />

    
    <glyph glyph-name="yingxiao" unicode="&#58945;" d="M507.764078 494.869852 621.366428 164.944672 682.988979 147.023565C709.69892 133.853418 739.444617 144.095683 747.429758 169.212305L771.801584 211.15542 891.7379 442.561839C904.681141 469.385672 894.354052 499.377716 869.360803 507.549647L487.178788 683.484492C462.185915 691.652182 425.559141 701.4066 395.818286 691.166002L286.760414 653.614366 428.522136 596.187126C455.230396 583.021859 487.108555 554.857845 507.764078 494.869852L507.764078 494.869852ZM285.417031-43.761024 592.757276 62.064709C617.543904 70.599429 627.251924 90.715595 618.645064 115.711732L482.667297 510.61984C474.061782 535.612072 452.099823 567.190507 427.107919 575.358531L258.632386 645.954584C233.63951 654.122274 203.897687 643.881343 189.232537 622.0583L94.981044 460.998077C80.314926 439.174701 87.405487 402.475633 96.011003 377.483401L231.988769-17.424707C235.637528-44.128055 255.671335-54.003289 285.417031-43.761024L285.417031-43.761024ZM264.834696 519.854188C285.812333 527.077368 304.654233 517.789077 311.93889 496.632897 318.008571 479.005266 310.093658 456.559278 289.116022 449.336098 271.632729 443.316118 249.296492 451.401206 242.012544 472.555326 234.727887 493.711506 243.857065 512.631011 264.834696 519.854188L264.834696 519.854188Z"  horiz-adv-x="1024" />

    
    <glyph glyph-name="shezhi" unicode="&#59042;" d="M1002.496 481.792c-5.44 28.672-22.592 47.04-43.456 46.528l-4.352 0c-71.808 0-130.24 58.432-130.24 130.24 0 23.68 11.264 49.6 11.328 49.792 11.072 24.96 2.56 55.616-19.84 71.232l-1.216 0.832-125.248 69.568-1.28 0.576c-7.424 3.2-15.552 4.864-24.192 4.864-17.856 0-35.328-7.104-46.784-19.008-15.296-15.808-63.488-56.768-102.4-56.768-39.296 0-87.808 41.792-103.168 57.856-11.52 12.16-29.12 19.392-47.168 19.392-8.448 0-16.448-1.6-23.744-4.672L339.2 851.776 209.536 780.544l-1.28-0.896C185.792 764.032 177.216 733.44 188.288 708.48c0.128-0.256 11.328-26.24 11.328-49.856 0-71.808-58.432-130.24-130.24-130.24L65.024 528.384c-20.928 0.512-38.08-17.92-43.456-46.528C21.12 479.552 11.072 425.856 11.072 383.616c0-42.304 10.048-95.936 10.496-98.176 5.376-28.288 22.08-46.592 42.688-46.592 0.256 0 0.512 0 0.768 0l4.352 0c71.808 0 130.24-58.432 130.24-130.24 0-23.68-11.264-49.6-11.328-49.792-11.072-24.96-2.56-55.616 19.776-71.232l1.216-0.832 122.88-68.736 1.28-0.576c7.424-3.264 15.488-4.928 24.128-4.928 18.048 0 35.648 7.424 47.04 19.84 14.4 15.68 64.576 60.352 104.704 60.352 40.448 0 89.792-44.416 105.408-61.504 11.456-12.608 29.184-20.16 47.36-20.16l0 0 0 0c8.448 0 16.384 1.6 23.68 4.736l1.344 0.576 127.36 70.4 1.28 0.896c22.4 15.616 30.976 46.272 19.904 71.168-0.128 0.256-11.328 26.24-11.328 49.856 0 71.808 58.432 130.24 130.24 130.24l4.352 0c20.928-0.448 38.08 17.92 43.456 46.528 0.448 2.24 10.496 55.936 10.496 98.176C1012.928 425.856 1002.88 479.552 1002.496 481.792L1002.496 481.792zM509.824 210.752c-95.68 0-173.504 77.824-173.504 173.504 0 95.68 77.824 173.504 173.504 173.504 95.68 0 173.504-77.824 173.504-173.504C683.264 288.576 605.44 210.752 509.824 210.752L509.824 210.752zM509.824 210.752M509.824 498.752 509.824 498.752c-63.104 0-114.496-51.328-114.496-114.496 0-63.104 51.328-114.496 114.496-114.496 63.104 0 114.496 51.328 114.496 114.496C624.256 447.36 572.928 498.752 509.824 498.752L509.824 498.752zM509.824 498.752"  horiz-adv-x="1024" />

    
    <glyph glyph-name="daipingjia01" unicode="&#58989;" d="M791.272727 537.6 791.272727 537.6l-418.909091 0 0 0c0 0 0 0 0 0-6.050909 0-12.101818-2.56-16.523636-6.749091-4.421818-4.421818-6.749091-10.472727-6.749091-16.523636 0-6.050909 2.56-12.101818 6.749091-16.523636 4.421818-4.421818 10.472727-6.749091 16.523636-6.749091 0 0 0 0 0 0l0 0 418.909091 0 0 0c6.050909 0 12.101818 2.56 16.523636 6.749091 4.421818 4.421818 6.749091 10.472727 6.749091 16.523636 0 6.050909-2.56 12.101818-6.749091 16.523636C803.374545 535.04 797.323636 537.6 791.272727 537.6zM791.272727 323.258182 791.272727 323.258182l-418.909091 0 0 0c0 0 0 0 0 0-6.050909 0-12.101818-2.56-16.523636-6.749091-4.421818-4.421818-6.749091-10.472727-6.749091-16.523636 0-6.050909 2.56-12.101818 6.749091-16.523636 4.421818-4.421818 10.472727-6.749091 16.523636-6.749091 0 0 0 0 0 0l0 0 418.909091 0 0 0c6.050909 0 12.101818 2.56 16.523636 6.749091 4.421818 4.421818 6.749091 10.472727 6.749091 16.523636 0 6.050909-2.56 12.101818-6.749091 16.523636C803.374545 320.698182 797.323636 323.258182 791.272727 323.258182zM900.654545 756.130909l-65.396364 0C823.854545 809.192727 776.843636 849.454545 720.989091 849.454545L116.829091 849.454545C52.596364 849.454545 0 796.392727 0 731.694545l0-462.429091C0 204.334545 52.596364 151.272727 116.829091 151.272727l25.367273 0c11.869091-53.061818 61.672727-93.323636 120.785455-93.323636l149.876364 0 113.338182-113.338182c17.221818-17.221818 39.098182-26.065455 59.578182-26.065455 15.825455 0 30.952727 5.352727 41.890909 16.523636l122.88 122.88L900.654545 57.949091c67.956364 0 123.345455 53.061818 123.345455 117.76L1024 638.370909C1024 703.069091 968.378182 756.130909 900.654545 756.130909zM165.934545 710.749091C149.410909 690.734545 139.636364 665.6 139.636364 638.370909L139.636364 197.818182l-22.807273 0C78.196364 197.818182 46.545455 229.701818 46.545455 269.032727L46.545455 731.694545C46.545455 771.025455 78.196364 802.909091 116.829091 802.909091l603.927273 0c30.254545 0 56.087273-19.549091 66.094545-46.778182L262.981818 756.130909c-27.461818 0-52.829091-8.610909-73.309091-23.272727C180.829091 726.574545 172.916364 719.127273 165.934545 710.749091zM974.661818 175.941818c0-39.098182-33.28-70.749091-74.007273-70.749091l-168.494545 0-137.076364-137.076364c-2.327273-2.327273-6.283636-2.792727-9.076364-2.792727-8.843636 0-18.850909 4.654545-26.763636 12.334545l-127.534545 127.534545-168.494545 0c-34.210909 0-62.836364 22.109091-71.447273 52.130909-1.629091 5.818182-2.56 12.101818-2.56 18.618182L189.207273 638.370909c0 39.098182 33.28 70.749091 74.007273 70.749091l621.381818 0 16.290909 0c40.727273 0 74.007273-31.650909 74.007273-70.749091L974.894545 175.941818z"  horiz-adv-x="1024" />

    
    <glyph glyph-name="zhankai" unicode="&#59036;" d="M928 704.003 96 704.003c-8.837 0-16-7.163-16-16l0-32.004c0-8.835 7.163-15.998 16-15.998l832 0c8.837 0 16 7.163 16 15.998l0 32.004C944 696.839 936.837 704.003 928 704.003zM928 416.003 96 416.003c-8.837 0-16-7.163-16-16l0-32.004c0-8.835 7.163-15.998 16-15.998l832 0c8.837 0 16 7.163 16 15.998l0 32.004C944 408.839 936.837 416.003 928 416.003zM928 127.003 96 127.003c-8.837 0-16-7.163-16-16l0-32.004c0-8.835 7.163-15.998 16-15.998l832 0c8.837 0 16 7.163 16 15.998l0 32.004C944 119.839 936.837 127.003 928 127.003z"  horiz-adv-x="1024" />

    
    <glyph glyph-name="fuwu2" unicode="&#59141;" d="M896 442.24 896 448c0 211.84-172.16 384-384 384C300.16 832 128 659.84 128 448l0-5.76C90.88 428.8 64 393.6 64 352l0-128C64 170.88 106.88 128 160 128 213.12 128 256 170.88 256 224l0 128c0 41.6-26.88 76.8-64 90.24L192 448c0 176.64 143.36 320 320 320s320-143.36 320-320l0-5.76c-37.12-13.44-64-48.64-64-90.24l0-128c0-53.12 42.88-96 96-96 53.12 0 96 42.88 96 96l0 128C960 393.6 933.12 428.8 896 442.24zM640-61.44 640-32c0 17.92-14.08 32-32 32l-128 0C462.08 0 448-14.08 448-32l0-64C448-113.92 462.08-128 480-128l128 0c159.36 0 288 114.56 288 256l-32 0L832 128C832 31.36 748.16-48 640-61.44z"  horiz-adv-x="1024" />

    
    <glyph glyph-name="jisuanqi" unicode="&#59258;" d="M861.202691 879.517237 162.797309 879.517237c-51.98115 0-94.287986-40.124136-94.287986-89.435188l0-826.372333c0-49.320133 42.306836-89.435188 94.287986-89.435188l698.377126 0c52.008396 0 94.315232 40.115054 94.315232 89.435188L955.489667 790.082049C955.489667 839.393101 913.182832 879.517237 861.202691 879.517237L861.202691 879.517237zM896.352935-36.290284c0-16.702749-15.780424-30.309556-35.1785-30.309556L162.797309-66.59984c-19.398075 0-35.151254 13.606807-35.151254 30.309556L127.646056 790.082049c0 16.702749 15.753179 30.298455 35.151254 30.298455l698.404372 0c19.398075 0 35.151254-13.595707 35.151254-30.298455L896.352935-36.290284 896.352935-36.290284zM896.352935-36.290284M748.821406 761.255882 275.087775 761.255882c-32.402445 0-58.748226-24.840192-58.748226-55.346524l0-62.744292c0-32.698113 27.854397-59.307271 62.058099-59.307271l470.125062 0c32.619403 0 59.136732 27.140958 59.136732 60.55251l0 61.552536C807.660451 736.452017 781.25816 761.255882 748.821406 761.255882L748.821406 761.255882zM748.523719 642.993518 278.398657 642.993518c-1.415778 0-2.337093 0.44098-2.716518 0.44098-0.125129 0-0.18063-0.037337-0.205858-0.152375l0 58.836018 473.047438-0.261359L748.523719 642.993518 748.523719 642.993518zM748.523719 642.993518M450.652313 233.409865l-20.903664 20.906691c-5.765032 5.765032-15.14065 5.765032-20.906691 0l-73.175437-73.175437-73.175437 73.175437c-5.765032 5.765032-15.138632 5.765032-20.903664 0l-20.897609-20.906691c-5.765032-5.765032-5.765032-15.138632 0-20.906691l73.173419-73.173419-73.173419-73.175437c-5.765032-5.765032-5.765032-15.131568 0-20.897609l20.897609-20.906691c5.765032-5.765032 15.138632-5.765032 20.903664 0l73.175437 73.175437 73.175437-73.175437c5.765032-5.765032 15.14065-5.765032 20.906691 0l20.903664 20.906691c5.768059 5.765032 5.768059 15.131568 0 20.897609l-73.173419 73.175437 73.173419 73.173419C456.420372 218.271233 456.420372 227.643824 450.652313 233.409865L450.652313 233.409865zM450.652313 233.409865M792.88207 436.02656 585.915113 436.02656c-8.155608 0-14.778381-6.622773-14.778381-14.778381l0-29.567861c0-8.165699 6.622773-14.789481 14.778381-14.789481l206.966958 0c8.155608 0 14.778381 6.624791 14.778381 14.789481l0 29.567861C807.660451 429.404796 801.037678 436.02656 792.88207 436.02656L792.88207 436.02656zM792.88207 436.02656M231.11793 376.889828l73.915113 0 0-73.915113c0-8.155608 6.624791-14.778381 14.789481-14.778381l29.567861 0c8.155608 0 14.778381 6.622773 14.778381 14.778381l0 73.915113 73.915113 0c8.155608 0 14.778381 6.624791 14.778381 14.789481l0 29.567861c0 8.155608-6.622773 14.778381-14.778381 14.778381l-73.915113 0 0 73.915113c0 8.155608-6.622773 14.778381-14.778381 14.778381l-29.567861 0c-8.165699 0-14.789481-6.622773-14.789481-14.778381l0-73.915113-73.915113 0c-8.155608 0-14.778381-6.622773-14.778381-14.778381l0-29.567861C216.339549 383.514619 222.962322 376.889828 231.11793 376.889828L231.11793 376.889828zM231.11793 376.889828M659.830226 229.060611c0-7.730773 3.185753-15.427237 8.66218-20.903664 5.467345-5.469363 13.163809-8.653098 20.906691-8.653098 7.739855 0 15.427237 3.182725 20.906691 8.653098 5.467345 5.476427 8.66218 13.17289 8.66218 20.903664 0 7.742883-3.194835 15.439346-8.66218 20.906691-5.478445 5.476427-13.165827 8.66218-20.906691 8.66218-7.742883 0-15.439346-3.184744-20.906691-8.66218C663.014969 244.498949 659.830226 236.802485 659.830226 229.060611L659.830226 229.060611zM659.830226 229.060611M659.830226 51.673625c0-7.742883 3.185753-15.439346 8.66218-20.906691 5.467345-5.476427 13.163809-8.66218 20.906691-8.66218 7.739855 0 15.427237 3.185753 20.906691 8.66218 5.467345 5.467345 8.66218 13.163809 8.66218 20.906691 0 7.730773-3.194835 15.427237-8.66218 20.904673-5.478445 5.469363-13.165827 8.653098-20.906691 8.653098-7.742883 0-15.439346-3.182725-20.906691-8.653098C663.014969 67.100861 659.830226 59.404398 659.830226 51.673625L659.830226 51.673625zM659.830226 51.673625M792.88207 169.93498 585.915113 169.93498c-8.155608 0-14.778381-6.622773-14.778381-14.789481l0-29.556761c0-8.167717 6.622773-14.789481 14.778381-14.789481l206.966958 0c8.155608 0 14.778381 6.622773 14.778381 14.789481l0 29.556761C807.660451 163.313216 801.037678 169.93498 792.88207 169.93498L792.88207 169.93498zM792.88207 169.93498"  horiz-adv-x="1024" />

    
    <glyph glyph-name="09" unicode="&#58914;" d="M768.601 191.975c-35.541 0-67.82-14.804-90.999-38.388L369.062 325.386c9.1 17.558 14.594 37.183 14.594 58.356 0 12.566-2.404 24.444-5.666 35.978l304.075 189.356c22.664-20.485 52.368-33.223 84.99-33.223 70.396 0 127.742 57.495 127.742 128.074S837.451 832 767.056 832s-127.742-57.495-127.742-128.074c0-14.632 2.919-28.403 7.383-41.486L345.368 474.977c-23.007 22.723-54.6 37.011-89.626 37.011C185.347 511.988 128 454.492 128 383.914S185.347 255.84 255.742 255.84c25.583 0 49.449 7.746 69.366 20.829l320.558-178.511c-3.091-11.017-5.151-22.206-5.151-34.084 0-70.578 57.347-128.074 127.742-128.074S896-6.505 896 64.074 838.997 191.975 768.601 191.975z"  horiz-adv-x="1024" />

    
    <glyph glyph-name="iconfontxiaofeifenqi" unicode="&#58900;" d="M520.451 20.805h-419.43c-57.815 0-99.74 41.891-99.74 99.735v559.24c0 57.815 41.925 99.74 99.74 99.74h803.905c57.81 0 104.86-41.889 104.86-99.74v-174.76c0-19.295-9.225-34.954-28.556-34.954s-31.11 15.66-31.11 29.834l0 179.88c0 24.416-15.66 40.076-34.956 40.076h-814.144c-19.26 0-45.196-20.815-45.196-40.076v-564.36c0-19.288 15.695-34.949 34.956-34.949h429.67c19.325 0 34.95-10.505 34.95-29.836-0.001-19.325-15.626-29.83-34.95-29.83v0zM974.83 545.092h-908.765c-19.295-5.12-34.949 10.54-34.949 29.836 0 19.295 15.654 29.829 34.949 29.829h908.765c19.331 0 34.956-10.534 34.956-29.829 0-19.297-15.625-29.836-34.956-29.836v0zM800.349 3.547c-115.56 0-209.574 94.013-209.574 209.573 0 115.561 94.015 209.574 209.574 209.574 115.556 0 209.571-94.013 209.571-209.574h-41.915c0 92.451-75.21 167.66-167.654 167.66-92.451 0-167.66-75.21-167.66-167.66 0-92.444 75.21-167.66 167.66-167.66 44.155 0 85.836 17.027 117.361 47.924l29.34-29.93c-39.411-38.629-91.506-59.908-146.702-59.908v0zM875.795 192.165h-105.836v124.695h41.915v-82.78h63.921l-0-41.915zM856.934 147.105h150.89v-150.89l-150.89 150.89zM856.934 147.105z"  horiz-adv-x="1024" />

    
    <glyph glyph-name="shang" unicode="&#58932;" d="M512-64 512-64C759.42357-64 960 136.57643 960 384 960 631.423568 759.42357 832 512 832 264.576432 832 64 631.423568 64 384 64 136.57643 264.576432-64 512-64L512-64ZM512-128 512-128C229.230208-128 0 101.23021 0 384 0 666.769792 229.230208 896 512 896 794.76979 896 1024 666.769792 1024 384 1024 101.23021 794.76979-128 512-128L512-128ZM219.635733 281.6l289.630938 289.630938 48.271823-48.271823-289.630938-289.630938-48.271823 48.271823ZM509.266671 571.230938l289.630938-289.630938-48.271823-48.271823-289.630938 289.630938 48.271823 48.271823Z"  horiz-adv-x="1024" />

    
    <glyph glyph-name="wodedingdan" unicode="&#58911;" d="M802.637-107.397h-575.263c-58.83 0-105.843 49.982-105.843 111.421l0 695.175c0 61.439 47.013 120.432 105.843 120.432h63.196l-0 57.813h449.859v-57.813h62.208c58.859 0 106.722-49.954 106.722-111.284v-704.324c-0-61.437-47.863-111.42-106.722-111.42v0zM684.513 820.235h-338.136v-87.213h338.136l-0 87.213zM853.524 694.692c0 36.846-15.549 66.907-50.888 66.907l-62.208 0.605v-87.075h-449.858v86.47h-63.196c-35.337 0-49.927-25.472-49.927-62.4v-695.175c0-36.847 14.59-53.278 49.927-53.278h575.263c35.338 0 50.888 16.432 50.888 53.278l-0 690.668h-0.001zM318.818 297.893h449.941v-58.114h-449.941v58.114zM317.939 443.027h450.82v-58.142l-450.82 0v58.142zM571.663 587.806h197.094v-57.18h-197.094v57.18zM684.267 96.045h-366.328v57.263h366.328v-57.263zM684.267 96.045z"  horiz-adv-x="1024" />

    
    <glyph glyph-name="wuuiconxiangjifangda" unicode="&#58912;" d="M512 896C230.4 896 0 665.6 0 384c0-281.6 230.4-512 512-512 281.6 0 512 230.4 512 512C1024 665.6 793.6 896 512 896zM716.8 332.8l-153.6 0 0-153.6c0-30.72-20.48-51.2-51.2-51.2s-51.2 20.48-51.2 51.2l0 153.6L307.2 332.8c-30.72 0-51.2 20.48-51.2 51.2 0 30.72 20.48 51.2 51.2 51.2l153.6 0L460.8 588.8c0 30.72 20.48 51.2 51.2 51.2s51.2-20.48 51.2-51.2l0-153.6 153.6 0c30.72 0 51.2-20.48 51.2-51.2C768 353.28 747.52 332.8 716.8 332.8z"  horiz-adv-x="1024" />

    
    <glyph glyph-name="dianzan" unicode="&#58891;" d="M274.688-51.126857 274.944-51.2 274.944-51.273143 275.2-51.273143 275.529143-51.273143 275.529143-51.2 275.748571-51.126857 274.688-51.126857ZM184.576 506.514286 66.267429 506.514286c-23.734857 0-42.971429-19.858286-42.971429-44.288l0-469.321143c0-24.466286 19.2-44.251429 42.971429-44.251429l118.345143 0c23.734857 0 42.971429 19.785143 42.971429 44.251429L227.584 462.189714C227.547429 486.656 208.347429 506.514286 184.576 506.514286L184.576 506.514286zM983.734857 490.276571c-20.662857 34.706286-50.724571 48.749714-87.04 50.285714-1.938286 0.292571-219.940571 1.206857-219.940571 1.206857 14.482286 43.117714 18.468571 94.500571 18.468571 142.774857 0 31.305143-3.401143 61.805714-9.691429 91.172571L685.019429 775.68c-11.410286 51.419429-55.405714 89.819429-108.105143 89.819429-61.330286 0-102.217143-53.211429-102.217143-117.211429 0-3.620571-0.292571-7.058286 0-10.532571-3.218286-119.698286-97.682286-215.954286-210.139429-229.156571L263.716571-51.126857l10.971429 0c0 0 0.109714 0 0.512 0 0.438857 0 0.548571 0 0.548571 0l544.256 0 0.329143 0c20.553143 0 32.182857 5.376 50.870857 17.773714 17.846857 11.922286 31.305143 28.196571 40.155429 46.555429 2.377143 3.693714 86.893714 383.524571 89.088 406.089143C1002.057143 443.318857 996.864 468.187429 983.734857 490.276571L983.734857 490.276571z"  horiz-adv-x="1024" />

    
    <glyph glyph-name="wodexingqiuzuiaishoucang" unicode="&#59016;" d="M864 239.35344 864 703.746237C864 757.020051 820.999456 800 767.955616 800L256.044384 800C202.978592 800 160 756.905722 160 703.746237L160 64.25376C160 10.979936 203.000544-32 256.044384-32L592.844992-32 417.734368-32 417.734368 16 256.044384 16C229.485376 16 208 37.514528 208 64.25376L208 703.746237C208 730.42871 229.52096 752 256.044384 752L767.955616 752C794.514624 752 816 730.485466 816 703.746237L816 414.45312 864 414.45312 864 239.35344ZM754.310752 310.8096C723.113824 310.8096 694.05616 297.697504 672.1104 274.939008 650.025472 298.468128 620.92656 312.03216 589.896288 312.03216 535.281056 312.03216 480 269.13296 480 187.141376 480 61.74368 652.5264-22.540064 659.873728-26.061664L671.031264-32 684.556704-26.034176C691.890272-22.491936 864 62.15264 864 187.793472 863.999136 268.55648 808.815168 310.8096 754.310752 310.8096ZM523.314464 189.305856C523.314464 241.134176 557.756672 270.134496 584.966304 270.134496 609.630336 270.134496 631.467744 268.317312 644.24432 238.747552 657.02 209.177792 684.326688 208.357184 699.582016 238.809504 714.837376 269.261824 734.858752 268.778272 760.203136 268.778272 788.213056 268.778272 821.101568 239.97808 821.101568 189.305856 821.101568 113.801696 721.964608 37.824384 671.031264 16 622.347936 37.585152 523.314464 113.816928 523.314464 189.305856ZM320 616C320 629.254835 330.913216 640 344.075808 640L423.924192 640C437.220896 640 448 629.347245 448 616 448 602.745165 437.086784 592 423.924192 592L344.075808 592C330.779104 592 320 602.652755 320 616ZM320 492C320 505.254835 331 516 344.083872 516L551.916128 516C565.21728 516 576 505.347245 576 492 576 478.745152 565 468 551.916128 468L344.083872 468C330.78272 468 320 478.652768 320 492Z"  horiz-adv-x="1024" />

    
    <glyph glyph-name="saoyisao" unicode="&#59133;" d="M851.485988-65.452327l-170.290743 0c-12.77234 0-21.286967 8.514827-21.286967 21.286967s8.514827 21.286967 21.286967 21.286967l170.290743 0c36.185266 0 63.861102 27.67024 63.861102 63.861102l0 170.290743c0 12.77234 8.514827 21.286967 21.286967 21.286967 12.77234 0 21.286967-8.514827 21.286967-21.286967l0-170.290743C957.921225-18.621079 911.089577-65.452327 851.485988-65.452327zM342.739718-65.452327 170.317421-65.452327c-59.603789 0-106.435237 46.831248-106.435237 106.435237l0 170.290743c0 12.77234 8.514827 21.286967 21.286967 21.286967s21.286967-8.514827 21.286967-21.286967l0-170.290743c0-36.185266 27.670439-63.861102 63.861102-63.861102l172.422298 0c12.77234 0 21.286967-8.514827 21.286967-21.286967S353.380504-65.452327 342.739718-65.452327zM85.169351 530.573367c-12.77234 0-21.286967 8.514827-21.286967 21.286967L63.882384 722.151277c0 59.603589 46.831448 106.435237 106.435237 106.435237l172.422098 0c12.77234 0 21.286967-8.514827 21.286967-21.286967s-8.514827-21.286967-21.286967-21.286967L170.317621 786.012579c-36.185266 0-63.861102-27.67024-63.861102-63.861102l0-170.290743C106.456518 539.088194 97.941492 530.573367 85.169351 530.573367zM936.634258 530.573367c-12.77214 0-21.286967 8.514827-21.286967 21.286967L915.347291 722.151277c0 36.185266-27.67024 63.861102-63.861102 63.861102L683.321204 786.01238c-12.77234 0-21.286967 8.514827-21.286967 21.286967s8.514827 21.286967 21.286967 21.286967l168.164784 0c59.603589 0 106.435237-46.831448 106.435237-106.435237l0-170.290743C957.921225 539.088194 949.406398 530.573367 936.634258 530.573367zM0.021282 381.564195c0 12.77234 8.514827 21.286967 21.286967 21.286967l979.181515 0c12.77234 0 21.287167-8.514827 21.287167-21.286967s-8.514827-21.286967-21.287167-21.286967L21.308249 360.277228C8.536109 360.277228 0.021282 368.792055 0.021282 381.564195z"  horiz-adv-x="1024" />

    
    <glyph glyph-name="icon201" unicode="&#58894;" d="M755.834424 694.195831c-116.378567 28.801976-203.359594-49.285496-232.139058-79.904865-5.569856-5.925966-14.981203-5.932106-20.568455-0.021489-28.564569 30.217209-114.424052 106.560968-230.578516 77.810157C129.064494 656.51565 93.461625 511.048581 136.189775 397.298887c38.508036-102.638635 314.628794-333.692988 368.231619-377.874233 5.229095-4.310166 12.771885-4.308119 17.998933 0.005117 53.556777 44.194548 329.353147 275.235598 367.949186 377.87014 42.679032 113.750717 9.04705 261.355473-134.536113 296.896944L755.834424 694.196855"  horiz-adv-x="1024" />

    
    <glyph glyph-name="xiadan" unicode="&#58967;" d="M831.919403-127.997 152.637273-127.997c-62.537342 0-113.225188 49.222908-113.225188 109.970326L39.412085 714.959174c0 60.747418 50.687846 109.957327 113.225188 109.957327l528.323546 0c48.347945 0 48.347945-73.286885 0-73.286885L152.637273 751.629616c-20.076147 0-37.765395-17.17127-37.765395-36.670442l0-732.986848c0-19.479172 17.689248-36.668442 37.765395-36.668442l679.282131 0c20.029149 0 37.743396 17.189269 37.743396 36.668442L869.662799 568.391403c0 46.958004 75.461793 46.958004 75.461793 0l0-586.419077C945.124592-78.774092 894.431747-127.997 831.919403-127.997L831.919403-127.997 831.919403-127.997zM583.080979 468.743638c-14.134399 16.034319-14.134399 36.650442 0 52.647762L958.104041 885.64692c15.344348 13.746416 38.913346 13.746416 54.242695 0 12.964449-13.771415 15.324349-28.633783 5.909749-44.6951l-5.909749-8.014659L637.347673 468.743638C621.998325 454.971224 598.389328 454.971224 583.080979 468.743638L583.080979 468.743638 583.080979 468.743638zM454.506443 458.414077 228.096066 458.414077c-48.382944 0-48.382944 73.306884 0 73.306884l226.409378 0C502.889387 531.719962 502.889387 458.414077 454.506443 458.414077L454.506443 458.414077 454.506443 458.414077zM680.960819 238.521423 228.096066 238.521423c-48.382944 0-48.382944 73.276886 0 73.276886l452.864753 0C729.308764 311.798309 729.308764 238.521423 680.960819 238.521423L680.960819 238.521423z"  horiz-adv-x="1024" />

    
    <glyph glyph-name="wuliuxinxichaxun" unicode="&#59032;" d="M550.912 179.2a4.1 4.1 0 1 0 167.936 0 4.1 4.1 0 1 0-167.936 0ZM77.824 179.2a4.1 4.1 0 1 0 167.936 0 4.1 4.1 0 1 0-167.936 0ZM579.584 269.312 301.056 269.312l0 2.048 0 4.096L301.056 588.8 141.312 588.8c0 0-32.768-10.24-75.776-73.728C30.72 465.92 22.528 410.624 20.48 394.24c0-4.096 0-18.432 0-18.432l0-102.4 0 0 0-4.096 0-22.528L20.48 179.2l40.96 0c0 2.048 0 4.096 0 6.144 0 24.576 8.192 45.056 22.528 63.488 6.144 8.192 16.384 16.384 24.576 22.528 0 0 2.048 0 2.048 2.048 2.048 2.048 4.096 2.048 6.144 4.096 14.336 6.144 28.672 10.24 45.056 10.24 16.384 0 30.72-4.096 45.056-10.24 2.048-2.048 4.096-2.048 6.144-4.096 0 0 2.048 0 2.048-2.048 10.24-6.144 18.432-14.336 24.576-22.528 14.336-16.384 22.528-38.912 22.528-63.488 0-2.048 0-4.096 0-6.144L532.48 179.2c0 2.048 0 4.096 0 4.096C532.48 220.16 550.912 252.928 579.584 269.312zM264.192 463.872 264.192 463.872l0-14.336 0-38.912L90.112 410.624l0 49.152 0 4.096 0 16.384 18.432 18.432 18.432 18.432L143.36 533.504l18.432 18.432 104.448 0L266.24 463.872zM735.232 185.344c0-2.048 0-4.096 0-6.144L819.2 179.2l0 0 0 90.112-131.072 0C716.8 252.928 735.232 220.16 735.232 185.344zM845.824 394.24l86.016 0L931.84 465.92l-86.016 0 0 34.816 139.264 0 0 51.2-139.264 0L845.824 650.24c0 12.288-10.24 20.48-22.528 20.48L344.064 670.72c-12.288 0-22.528-10.24-22.528-20.48l0-323.584c0-12.288 10.24-20.48 22.528-20.48l479.232 0c10.24 0 20.48 8.192 22.528 16.384L1003.52 322.56l0 36.864-157.696 0L845.824 394.24z"  horiz-adv-x="1024" />

    
    <glyph glyph-name="shuaxin" unicode="&#59089;" d="M442.154496-17.408C469.853696-22.9376 497.143296-25.6 523.869696-25.6 700.151296-25.6 850.013696 89.3952 905.207296 249.0368 911.812096 268.1344 928.656896 281.6 948.573696 281.6L959.888896 281.6C990.711296 281.6 1013.085696 250.88 1003.306496 221.2352 936.183296 18.2784 746.896896-128 523.869696-128 225.680896-128-12.194304 133.4784 21.546496 442.4192 47.402496 679.0656 239.146496 870.3488 473.130496 893.4912 490.231296 895.1808 507.127296 896 523.869696 896 661.802496 896 786.679296 839.8848 877.764096 749.1072L877.764096 844.8C877.764096 873.0624 900.394496 896 928.298496 896 956.202496 896 978.832896 873.0624 978.832896 844.8L978.832896 640C978.832896 611.7376 956.202496 588.8 928.298496 588.8L726.109696 588.8C698.154496 588.8 675.524096 611.7376 675.524096 640 675.524096 668.2624 698.154496 691.2 726.109696 691.2L790.826496 691.2C719.556096 754.8416 626.116096 793.6 523.869696 793.6 274.167296 793.6 76.586496 563.2 127.479296 301.2608 158.455296 142.1312 285.021696 13.9264 442.154496-17.408Z"  horiz-adv-x="1024" />

    
    <glyph glyph-name="iconcustomer" unicode="&#58918;" d="M864.04 226.368C834.944 278.64 799.728 324.744 758.936 362.232L719.712 320.336C761.296 282.104 796.264 233.352 824.272 177.816 831.952 162.584 839.024 146.944 845.552 130.728 869.336 71.68 885.928 6.536 893.28-62.744L782.392-62.336 738.72-62.176 140.344-59.968C162.672 144.032 259.96 307.312 388.432 373.68 410.376 362.12 434.048 353.44 458.808 347.736 459.608 343.976 460.024 340 462.432 336.688L481.304 310.736 436.952 81.2C435.224 72.08 438.048 62.672 444.584 55.928L496.096 3.112C501.52-2.528 508.984-5.624 516.768-5.624 524.616-5.624 532.128-2.528 537.528 3.112L588.992 55.928C595.496 62.672 598.32 72.056 596.584 81.2L552.256 310.736 571.104 336.688C573.352 339.76 573.6 343.456 574.456 346.992 698.976 373.408 792.704 483.184 792.704 614.392 792.704 765.192 668.92 888 516.744 888 364.568 888 240.872 765.248 240.872 614.424 240.872 532.256 278.312 459.36 336.32 409.12 197.176 322.272 96.104 137.992 80.056-86.408 79.48-94.296 82.28-102.016 87.68-107.816 93.112-113.632 100.712-116.928 108.688-117.008L924.688-120 924.768-120C927.592-120 934.888-120.376 943.264-113.36 951.64-106.336 952-75.096 952-75.096 943.968 19.128 920.712 107.584 884.664 184.944M516.8 64.144 496.416 85.064 516.8 190.568 537.184 85.064 516.8 64.144 516.8 64.144ZM298.472 614.424C298.472 733.8 396.472 830.856 516.8 830.856 637.176 830.856 735.072 733.8 735.072 614.424 735.072 520.72 674.32 441.432 590.056 411.376 579.88 407.76 569.736 404.248 558.928 402.184 545.272 399.544 531.256 397.968 516.768 397.968 502.232 397.968 487.968 399.576 474.232 402.184 443.728 408.192 415.72 420.76 391.232 437.92 335.36 477.176 298.472 541.472 298.472 614.424L298.472 614.424Z"  horiz-adv-x="1024" />

    
    <glyph glyph-name="dingdanchaxun" unicode="&#59028;" d="M471.04 276.7616c0 152.69376 123.78624 276.48 276.48 276.48 9.34912 0 18.59072-0.47616 27.70432-1.38752L775.22432 710.87104c0 51.10272-41.58976 92.68736-92.69248 92.68736L126.42304 803.5584c-51.0976 0-92.68736-41.58464-92.68736-92.68736l0-617.90208c0-51.0976 41.58976-92.69248 92.68736-92.69248l556.1088 0c8.10496 0 15.9232 1.152 23.424 3.11296C572.98432 23.44448 471.04 138.1888 471.04 276.7616zM604.55424 649.07776c25.61024 0 46.34112-20.7616 46.34112-46.34112 0-25.61536-20.73088-46.37696-46.34112-46.37696s-46.34112 20.7616-46.34112 46.37696C558.21312 628.32128 578.944 649.07776 604.55424 649.07776zM403.61472 649.07776c25.61024 0 46.34112-20.7616 46.34112-46.34112 0-25.61024-20.73088-46.37696-46.34112-46.37696-25.61024 0-46.34112 20.7616-46.34112 46.37696C357.2736 628.32128 378.00448 649.07776 403.61472 649.07776zM370.62144 401.08544c0-17.05472-13.80864-30.89408-30.89408-30.89408L187.99616 370.19136c-17.05472 0-30.89408 13.83936-30.89408 30.89408s13.84448 30.89408 30.89408 30.89408l151.72608 0C356.80768 431.97952 370.62144 418.14016 370.62144 401.08544zM203.38688 649.07776c25.61024 0 46.34112-20.7616 46.34112-46.34112 0-25.61024-20.73088-46.37696-46.34112-46.37696-25.61536 0-46.34624 20.7616-46.34624 46.37696C157.04064 628.32128 177.77152 649.07776 203.38688 649.07776zM430.37696 186.12224 187.87328 186.12224c-17.05472 0-30.89408 13.80864-30.89408 30.88896 0 17.09056 13.83936 30.89408 30.89408 30.89408l242.49856 0c17.08032 0 30.89408-13.80352 30.89408-30.89408C461.27104 199.93088 447.45728 186.12224 430.37696 186.12224zM994.44224 222.60736c28.31872 134.6816-57.87648 266.752-192.54272 295.0656-134.6816 28.31872-266.752-57.856-295.07072-192.5376-28.31872-134.67648 57.86624-266.752 192.54272-295.0656 55.61344-11.69408 110.65856-3.60448 158.32576 19.12832l65.4848-100.46464c4.67968-7.06048 11.63776-11.64288 19.32288-13.2608 7.68-1.6128 15.9744-0.32256 23.03488 4.35712 14.2592 9.24672 18.2528 28.2368 9.00608 42.4192l-65.1264 99.79392C951.39328 116.6848 982.3744 165.21728 994.44224 222.60736zM711.22944 86.0672c-103.71584 21.8112-170.11712 123.56096-148.3264 227.18976 21.8112 103.71584 123.56608 170.112 227.28192 148.3008 103.71072-21.80608 170.10176-123.55584 148.29568-227.27168C916.66944 130.57024 814.94528 64.26112 711.22944 86.0672zM646.2208 387.49184c-19.55328-23.14752-34.1504-49.6128-43.23328-78.78144-2.1504-6.97344 1.69472-14.36672 8.67328-16.51712 0.38912-0.16384 0.78848-0.25088 1.19808-0.3328 6.54848-1.37728 13.2608 2.45248 15.29344 8.94464 8.05376 25.82016 20.89984 49.19808 38.1952 69.62688 4.74112 5.67296 4.02432 13.9264-1.56672 18.64192C659.28192 393.78432 650.94144 393.08288 646.2208 387.49184z"  horiz-adv-x="1024" />

    
    <glyph glyph-name="daixiadan" unicode="&#58987;" d="M907.137 529.553c-8.42 15.946-21.442 28.459-37.365 36.147l0 164.268c0 47.721-38.612 86.544-86.070 86.544h-679.949c-47.46 0-86.070-38.823-86.070-86.544v-686.58c0-47.723 38.61-86.544 86.070-86.544h542.242v1.704c0.165-0.035 0.326-0.079 0.49-0.112 69.842-15.308 143.040-5.134 206.12 28.651 146.856 78.655 202.692 262.78 124.47 410.443l-69.938 132.023zM103.753 14.538c-15.819 0-28.689 12.941-28.689 28.849v686.581c0 15.906 12.869 28.848 28.689 28.848h679.95c15.821 0 28.691-12.941 28.691-28.848v-158.588c-6.251-1.645-12.357-4.021-18.202-7.151-10.572-5.661-19.84-13.62-27.126-23.242-12.11 11.034-26.914 18.012-42.441 20.607 3.773 4.754 6.003 10.599 6.003 16.923 0 15.932-14.118 28.848-31.529 28.848l-218.505 0-19.61 37.013c-21.654 40.877-72.343 56.419-112.994 34.646-27.359-14.654-43.282-42.533-44.186-71.659h-115.449c-17.413 0-31.526-12.917-31.526-28.848 0-15.932 14.114-28.846 31.526-28.846h133.513l66.477-125.49-199.989-0c-17.413 0-31.526-12.916-31.526-28.847 0-15.934 14.114-28.851 31.526-28.851l230.555 0 21.096-39.822c-8.112 2.327-16.194 3.717-24.149 4.138-19.383 1.062-38.54-3.395-56.938-13.25-8.164-4.372-14.483-8.848-19.116-12.128l-0.835-0.59c-1.085-0.77-2.116-1.498-2.708-1.867-0.574-0.325-1.036-0.668-1.379-0.931l-21.232-14.901c-6.396-4.449-10.53-11.478-11.332-19.281-0.817-7.824 1.742-15.558 7.005-21.201 2.58-2.787 5.222-5.639 7.905-8.539l-128.872 0c-17.413 0-31.526-11.624-31.526-25.962 0-14.342 14.114-25.965 31.526-25.965h176.845c51.477-55.808 102.719-111.685 107.481-117.828 15.673-20.268 33.817-38.312 53.865-53.821l-422.794 0.003zM666.219 549.671c-10.026-6.395-18.535-14.794-24.991-24.746-25.44 16.906-58.26 18.688-85.336 4.186-9.141-4.897-17.109-11.272-23.77-19.012l-20.961 39.571 155.059-0zM827.435 34.74c-57.615-30.86-122.369-36.892-181.439-20.868v0.667h-2.457c-49.502 13.978-94.864 43.515-128.479 86.981-8.438 10.908-108.088 118.81-145.403 159.153 0.31 0.221 0.632 0.448 0.966 0.683 3.825 2.703 8.16 5.766 13.275 8.507 12.605 6.751 50.943 27.291 116.386-56.231l0.070-0.087c0.169-0.223 0.331-0.405 0.458-0.54l0.273-0.313c0.091-0.105 0.178-0.197 0.239-0.275l0.584-0.805 0.352-0.239 0.155-0.167c0.316-0.33 0.739-0.754 1.301-1.218 0.182-0.181 0.459-0.455 0.842-0.753 0.15-0.128 0.318-0.256 0.481-0.383l0.186-0.143c0.189-0.165 0.397-0.322 0.618-0.485l0.409-0.368 0.5-0.309c0.243-0.144 0.466-0.267 0.693-0.392l0.299-0.174c0.315-0.203 0.84-0.538 1.506-0.829 0.055-0.024 0.113-0.052 0.169-0.086l0.814-0.42c0.277-0.145 0.556-0.281 0.848-0.407 0.646-0.28 1.215-0.453 1.547-0.552l0.118-0.045c0.263-0.104 0.529-0.2 0.813-0.288 0.299-0.092 0.589-0.166 0.879-0.24 0.098-0.025 0.195-0.045 0.272-0.069 0.378-0.117 0.839-0.251 1.407-0.352 0.257-0.049 0.526-0.096 0.794-0.143 0.177-0.030 0.352-0.057 0.519-0.093l0.378-0.064c0.211-0.038 0.424-0.074 0.657-0.101 0.647-0.085 1.284-0.127 1.953-0.135 0.225-0.023 0.529-0.045 0.882-0.037l1.578 0.045 2.532 0.277 2.341 0.466c0.208 0.047 0.442 0.112 0.669 0.175l0.090 0.024c0.627 0.133 1.154 0.311 1.518 0.438l1.075 0.361c0.778 0.248 1.423 0.587 1.767 0.777l0.214 0.097c0.311 0.137 0.607 0.277 0.869 0.416l0.21 0.113c0.234 0.125 0.598 0.32 1.012 0.615 0.384 0.213 0.839 0.486 1.269 0.816l0.924 0.69c0.471 0.267 0.835 0.56 1.087 0.788 0.315 0.249 0.588 0.496 0.829 0.713 0.476 0.345 0.915 0.745 1.297 1.187 0.287 0.29 0.628 0.653 0.993 1.102l0.056 0.060c0.14 0.149 0.277 0.295 0.423 0.463 0.215 0.237 0.413 0.486 0.646 0.792l0.125 0.147c0.381 0.446 0.757 0.976 1.085 1.504 0.157 0.243 0.31 0.506 0.469 0.795l0.029 0.051c0.149 0.229 0.286 0.459 0.42 0.697l0.522 0.765 0.145 0.474c0.074 0.144 0.149 0.302 0.237 0.49 0.041 0.097 0.091 0.195 0.139 0.297 0.12 0.248 0.24 0.496 0.347 0.741 0.1 0.222 0.185 0.435 0.269 0.648l0.335 0.905c0.048 0.152 0.087 0.304 0.123 0.401l0.254 0.693c0.078 0.269 0.14 0.524 0.196 0.776l0.024 0.105c0.077 0.259 0.148 0.537 0.218 0.82l0.187 0.756c0.080 0.412 0.165 0.887 0.217 1.402 0.062 0.298 0.152 0.759 0.187 1.311 0.021 0.208 0.032 0.41 0.044 0.611l0.093 0.562-0.018 0.51c0.002-0.013 0.002-0.012 0.004-0.008 0.021 0.311 0.032 0.618 0.028 0.918-0.010 0.458-0.023 0.91-0.061 1.409l-0.015 0.656c-0.024 0.718-0.114 1.336-0.188 1.78-0.038 0.338-0.096 0.791-0.222 1.312-0.031 0.179-0.072 0.368-0.115 0.576l-0.028 0.161c-0.054 0.336-0.132 0.663-0.212 0.991l-0.191 0.784c-0.070 0.234-0.149 0.46-0.246 0.708l-0.192 0.552c-0.134 0.365-0.27 0.742-0.428 1.156l-0.203 0.479c-0.062 0.156-0.13 0.316-0.195 0.465-0.273 0.669-0.556 1.203-0.788 1.641l-184.441 348.172c-7.743 14.616-2.215 32.84 12.32 40.624 14.537 7.784 32.661 2.229 40.403-12.386l188.719-356.251c6.958-13.13 23.24-18.124 36.303-11.128 13.056 6.993 18.020 23.367 11.063 36.495l-80.909 152.734c-7.743 14.617-2.216 32.842 12.32 40.625 14.536 7.785 32.661 2.228 40.404-12.388l85.326-161.071c6.96-13.131 23.239-18.126 36.296-11.133 13.064 6.995 18.025 23.367 11.070 36.5l-69.553 131.296c-7.743 14.618-2.218 32.841 12.318 40.626 14.537 7.784 32.662 2.227 40.403-12.388l73.976-139.643c6.955-13.13 23.236-18.122 36.295-11.128 13.060 6.996 18.025 23.366 11.068 36.497l-51.573 97.356c-7.741 14.613-2.213 32.837 12.322 40.622 14.536 7.784 32.662 2.231 40.402-12.383l69.942-132.033c64.315-121.402 18.409-272.78-102.33-337.445v0z"  horiz-adv-x="1024" />

    
    <glyph glyph-name="qiandao" unicode="&#58909;" d="M837.4 772.6H760v-62.1c0-23.6-21.9-42.8-48.8-42.8s-48.8 19.2-48.8 42.8v62.1H361.6v-62.1c0-23.6-21.9-42.8-48.8-42.8S264 686.9 264 710.5v62.1h-77.4c-52.2 0-94.7-37.3-94.7-83.1V19c0-45.8 42.5-83.1 94.7-83.1h650.8c52.2 0 94.7 37.3 94.7 83.1V689.5c0 45.8-42.5 83.1-94.7 83.1z m33.1-740.9c0-14.8-14.8-26.8-33.1-26.8H186.6c-18.3 0-33.1 12-33.1 26.8V537.4h716.9v-505.7zM313.6 684.1c12.9 0 23.3 8 23.3 17.9V814.2c0 9.9-10.4 17.9-23.3 17.9s-23.4-8-23.4-17.9V702c0.1-9.9 10.5-17.9 23.4-17.9z m396.8 0c12.9 0 23.4 8 23.4 17.9V814.2c0 9.9-10.5 17.9-23.4 17.9-12.9 0-23.3-8-23.3-17.9V702c-0.1-9.9 10.4-17.9 23.3-17.9z m16.5-298.6l-229-264c-12.2-14.1-32-14.1-44.2 0L325.1 269.7c-12.2 14.1-12.2 36.9 0 51 12.2 14.1 32 14.1 44.2 0l106.5-122.8 206.9 238.6c12.2 14.1 32 14.1 44.2 0 12.2-14.1 12.2-36.9 0-51z"  horiz-adv-x="1024" />

    
    <glyph glyph-name="weizhi" unicode="&#59510;" d="M511.999 377.953c74.070 0 134.335 60.226 134.335 134.286 0 74.119-60.266 134.412-134.335 134.412s-134.335-60.302-134.335-134.412c-0.001-74.061 60.266-134.286 134.335-134.286zM511.999 597.479c46.961 0 85.191-38.224 85.171-85.239 0-46.939-38.211-85.134-85.171-85.134-46.968 0-85.182 38.195-85.182 85.134 0 47.016 38.203 85.239 85.182 85.239zM256.161 350.275l237.757-296.157c4.945-6.109 12.363-17.768 20.164-17.768h0.915c8.128 0 15.654 12.477 20.367 19.126l221.883 322.353c2.694 2.617 4.819 5.705 6.204 9.235 26.928 44.178 38.475 88.308 38.475 146.755 0 162.351-135.5 294.212-302.054 294.212-165.313 0-299.791-135.027-299.791-300.321 0-59.908 17.624-118.778 50.951-168.2 1.472-2.194 2.942-6.389 5.128-9.235zM499.863 776.464c137.865 0 250.024-108.745 250.024-242.367 0-50.528-9.631-86.336-32.5-122.462l-204.769-289.911-215.504 264.637c-0.962 1.318-1.886 2.713-2.886 4.195-27.544 40.86-42.109 88.637-42.109 138.174 0 136.613 111.148 247.734 247.743 247.734zM694.010 173.628c-13.893 3.751-28.181-4.282-32.028-18.117-3.849-13.824 4.282-28.179 18.097-32.037 67.365-18.664 91.792-43.544 91.792-55.675 0-25.822-91.234-76.071-258.49-76.071-167.247 0-258.482 50.248-258.482 76.071 0 12.46 25.304 37.839 94.976 56.542 13.883 3.741 22.11 17.991 18.378 31.891-3.725 13.874-17.954 22.128-31.865 18.377-86.114-23.147-133.527-61.054-133.527-106.82 0-84.076 156.233-128.081 310.528-128.081 154.307 0 310.529 44.005 310.529 128.091 0 45.005-46.151 82.594-129.908 105.828z"  horiz-adv-x="1024" />

    
    <glyph glyph-name="tianjiachenggong" unicode="&#58881;" d="M512 896a512 512 0 1 1 0-1024A512 512 0 0 1 512 896zM411.794286 91.428571a39.204571 39.204571 0 0 0-27.501715 11.117715L155.501714 325.851429a37.449143 37.449143 0 0 0 0 53.76 39.789714 39.789714 0 0 0 55.076572 0l201.142857-196.461715 392.411428 382.829715a39.497143 39.497143 0 0 0 55.003429 0 37.302857 37.302857 0 0 0 0-53.686858l-419.84-409.746285A39.058286 39.058286 0 0 0 411.794286 91.428571z"  horiz-adv-x="1024" />

    
    <glyph glyph-name="jian1" unicode="&#59095;" d="M512-128C229.242435-128 0 101.242435 0 384S229.242435 896 512 896 1024 666.757565 1024 384 794.757565-128 512-128zM801.391304 406.26087a44.521739 44.521739 0 0 1-44.521739 44.521739H267.130435a44.521739 44.521739 0 0 1-44.521739-44.521739v-22.26087a44.521739 44.521739 0 0 1 44.521739-44.521739h489.73913a44.521739 44.521739 0 0 1 44.521739 44.521739V406.26087z"  horiz-adv-x="1024" />

    
    <glyph glyph-name="tongzhi" unicode="&#58965;" d="M512-133.811c56.962 0 103.564 46.602 103.564 103.564h-207.126c0-56.962 46.602-103.564 103.564-103.564zM848.576 176.874v284.798c0 158.969-110.291 292.050-258.9 327.26v35.21c0 42.98-34.701 77.671-77.677 77.671-0.031 0-0.067 0-0.103 0-42.843 0-77.572-34.731-77.572-77.572 0-0.034 0-0.069 0-0.103v-35.204c-148.613-35.21-258.906-168.291-258.906-327.26v-284.798l-103.564-103.564v-51.779h880.29v51.779l-103.569 103.564z"  horiz-adv-x="1024" />

    
    <glyph glyph-name="customer" unicode="&#58982;" d="M288 608c0-123.712 100.288-224 224-224s224 100.288 224 224c0 123.712-100.288 224-224 224-123.712 0-224-100.288-224-224zM583.1 378.4l-71.1-71.1-71.1 71.1c-213.6-34.1-376.9-219.2-376.9-442.4h896c0 223.2-163.3 408.3-376.9 442.4zM512 0l-76.7 76.7 76.7 230.3 76.7-230.4-76.7-76.6z"  horiz-adv-x="1024" />

    
    <glyph glyph-name="icon--" unicode="&#58901;" d="M805.562722 751.259001H218.364299c-41.731628 0-75.61805-36.367696-75.618049-81.103613v-613.993752c0-44.760242 33.910748-81.103612 75.618049-81.103612h587.259239c41.719465 0 75.630213 36.355533 75.630212 81.103612V670.216204C881.205098 714.964283 847.282187 751.259001 805.562722 751.259001z m-58.784307-242.337788c-19.643421-122.555488-119.113328-213.219304-234.541234-213.219304-115.610353 0-215.505969 91.223319-234.83315 213.146325-19.862357 8.514176-33.898585 29.337419-33.898585 53.687964 0 32.00114 24.204587 57.945052 54.040694 57.945053s54.040694-25.943912 54.040694-57.945053a61.107461 61.107461 0 0 0-5.04769-24.131608c-2.140707-7.954673-5.509888-15.53229-11.348181-21.820618 16.651296-93.084275 90.007008-158.302866 177.034055-158.302866 87.35545 0 161.136871 66.264619 177.034054 158.193398-5.643683 5.899108-8.964211 13.014527-11.177897 20.677285a60.815546 60.815546 0 0 0-5.704499 25.445225c0 32.00114 24.204587 57.945052 54.040694 57.945052s54.040694-25.943912 54.040695-57.945052c0-24.326218-13.938923-45.003504-33.667487-53.639312z"  horiz-adv-x="1024" />

    
    <glyph glyph-name="wodedingdan1" unicode="&#59033;" d="M878.684477 861.986655H703.981402a33.916714 33.916714 0 0 1-36.476467 33.916714H356.495065A33.916714 33.916714 0 0 1 320.018598 861.986655H145.315523A85.111755 85.111755 0 0 1 59.56383 776.234962v-819.120647A85.111755 85.111755 0 0 1 145.315523-127.99744h733.368954a85.111755 85.111755 0 0 1 85.111755 85.111755V776.234962A85.111755 85.111755 0 0 1 878.684477 861.986655z m33.916715-904.232402a33.916714 33.916714 0 0 0-33.916715-33.916715H145.315523a33.916714 33.916714 0 0 0-33.916715 33.916715V776.234962a33.916714 33.916714 0 0 0 33.916715 33.916715H320.018598a33.916714 33.916714 0 0 1 33.276777-30.077087h311.649808a33.916714 33.916714 0 0 1 39.036219 30.717025h177.902765a33.916714 33.916714 0 0 0 33.916715-33.916715zM279.702504 584.25356h464.594992v-51.19504H279.702504zM279.702504 382.033151h464.594992v-51.195041H279.702504zM279.702504 179.172803h464.594992v-51.195041H279.702504z"  horiz-adv-x="1024" />

    
    <glyph glyph-name="gouwuche3" unicode="&#58892;" d="M1063.083-30.652c-0.137-0.922 3.994 9.182 0 0v0zM1066.359-23.108c0.58 1.297 1.229 2.56 1.843 3.891-0.751-1.263-1.399-2.492-1.843-3.891zM953.856 610.543c0.205 0.58-0.137 1.263-0.205 1.911 0.068 0.649 0.41 1.161 0.41 1.809 0 12.049-9.865 21.777-21.948 21.777l-654.814-0c-1.126 0-2.116-0.478-3.209-0.649l-23.177 147.183c-1.741 11.127-12.8 18.603-24.678 16.759-0.171 0-0.273-0.137-0.444-0.137-0.717 0.068-1.365 0.41-2.116 0.41h-131.106c-12.459 0-22.596-10.103-22.596-22.596s10.138-22.63 22.596-22.63h118.647l91.341-580.062c1.604-10.342 11.23-17.067 22.050-16.589 0.717-0.137 1.399-0.614 2.15-0.614h468.855c8.602 0 15.667 9.66 15.667 21.845 0 12.049-7.066 21.743-15.667 21.743l-453.12 0-17.852 113.391h516.403c0 0 2.56-0.375 6.383 1.604 0.478 0.273 0.819 0.58 1.229 0.751 3.652 2.253 8.192 6.656 12.595 15.599l-3.891-3.55c0 0 0 0.068 0 0.137 1.399 1.195 2.355 1.809 3.891 3.413l90.999 273.647c0 0.068 0 0.171 0.068 0.273l1.536 4.574zM825.788 357.683h-505.515c-0.819 0-1.536-0.444-2.355-0.649l-37.069 235.418h621.431l-76.493-234.769zM311.057 68.096c0-24.073 19.515-43.588 43.588-43.588s43.588 19.515 43.588 43.588c0 24.073-19.515 43.588-43.588 43.588-24.073 0-43.588-19.515-43.588-43.588zM702.771 68.574c-0-23.809 19.301-43.11 43.11-43.11s43.11 19.301 43.11 43.11c0 0 0 0 0 0 0 23.809-19.301 43.11-43.11 43.11-23.809 0-43.11-19.301-43.11-43.11 0-0 0-0 0-0z"  horiz-adv-x="1069" />

    
    <glyph glyph-name="shoucang1" unicode="&#58895;" d="M511.988254 718.99798c8.274747 0 15.773737-4.39596 19.00606-11.248485l88.177778-179.070707c5.042424-10.343434 15.127273-17.583838 26.763636-19.264647l202.989899-29.478787c7.628283-1.163636 14.092929-6.206061 16.549495-12.929293 2.327273-6.464646 0.517172-13.705051-4.654545-18.618182l-148.686869-145.19596c-8.145455-7.886869-11.765657-19.264646-9.955555-30.254545l34.521212-201.438384c1.163636-6.981818-1.939394-13.963636-8.016162-18.10101-3.749495-2.456566-8.016162-3.749495-12.541414-3.749495-3.620202 0-7.240404 0.905051-10.343434 2.456566l-177.00202 93.220202c-5.171717 2.715152-10.989899 4.137374-16.808081 4.137373s-11.507071-1.422222-16.808081-4.137373l-176.743434-93.09091c-3.232323-1.680808-6.852525-2.585859-10.602021-2.585858-4.39596 0-8.791919 1.292929-12.282828 3.620202-6.335354 4.266667-9.567677 11.248485-8.274747 18.230303L321.798355 272.808081c1.939394 11.119192-1.810101 22.367677-9.955556 30.254545L163.155931 448.387879c-5.171717 5.042424-6.852525 12.153535-4.654546 18.618182 2.327273 6.723232 8.921212 11.894949 16.549495 13.058585l202.860606 29.478788c11.636364 1.680808 21.591919 8.921212 26.763636 19.264647L492.8529 707.878788c3.490909 6.723232 10.989899 11.119192 19.135354 11.119192z m0 86.496969c-24.824242 0-47.450505-13.705051-58.052526-35.167676l-100.589899-204.282829-231.30505-33.616161c-23.789899-3.361616-43.571717-19.393939-51.2-40.985859-7.628283-21.721212-1.810101-45.769697 14.868687-62.060606L255.212496 263.757576 215.907446 34.133333c-4.008081-23.143434 6.206061-46.416162 26.375757-59.991919 11.119192-7.369697 24.048485-11.119192 36.977778-11.119192 10.60202 0 21.333333 2.585859 31.030303 7.628283l201.69697 106.278788 201.696969-106.278788c9.69697-5.042424 20.428283-7.628283 31.030303-7.628283 13.058586 0 25.987879 3.749495 36.977778 11.119192 20.040404 13.575758 30.254545 36.719192 26.375758 59.991919L768.764011 263.757576l169.503031 165.624242c16.808081 16.290909 22.49697 40.339394 14.868686 62.060606-7.628283 21.721212-27.410101 37.624242-51.2 40.985859l-231.30505 33.616161-100.589899 204.282829C559.568052 791.789899 536.941789 805.494949 511.988254 805.494949"  horiz-adv-x="1024" />

    
    <glyph glyph-name="sousuo2" unicode="&#58880;" d="M470.4-16c-112 0-224 41.6-310.4 128-169.6 172.8-169.6 451.2 0 624 172.8 172.8 451.2 172.8 620.8 0 172.8-172.8 172.8-451.2 0-620.8-83.2-86.4-198.4-131.2-310.4-131.2zM470.4 787.2c-92.8 0-185.6-35.2-256-105.6-140.8-140.8-140.8-374.4 0-515.2 140.8-140.8 374.4-140.8 515.2 0 140.8 140.8 140.8 374.4 0 515.2-70.4 70.4-166.4 105.6-259.2 105.6zM905.6-80l-160 160c-19.2 19.2-19.2 51.2 0 70.4s51.2 19.2 70.4 0l160-160c19.2-19.2 19.2-51.2 0-70.4-19.2-22.4-51.2-22.4-70.4 0z"  horiz-adv-x="1024" />

    
    <glyph glyph-name="dingdan" unicode="&#58931;" d="M664.89789 819.362025v-227.645569h230.129958l-230.129958 230.075949zM647.561181 558.177215c-8.911392 0-16.202532 7.291139-16.202531 16.202532V829.137553H223.81097c-8.479325 0-15.338397-6.91308-15.338396-15.392405v-859.760338c0-8.479325 6.91308-15.338397 15.338396-15.338396h663.223629c8.479325 0 15.392405 6.91308 15.392405 15.338396v604.354431l-254.865823-0.162026zM387.564557 617.85654h122.383122c11.233755 0 20.361181-9.127426 20.361182-20.361181 0-11.233755-9.127426-20.361181-20.361182-20.361182H387.564557c-11.233755 0-20.361181 9.127426-20.361181 20.361182 0 11.179747 9.127426 20.361181 20.361181 20.361181z m350.78481-449.512236c0-11.233755-9.127426-20.361181-20.361181-20.361182H387.294515c-11.233755 0-20.361181 9.127426-20.361182 20.361182 0 11.233755 9.127426 20.361181 20.361182 20.361181h330.693671c11.233755 0.054008 20.361181-9.181435 20.361181-20.361181z m0 215.493671c0-11.017722-9.073418-20.091139-20.091139-20.09114H386.970464c-11.017722 0-20.091139 9.073418-20.091139 20.09114v0.648101c0 11.017722 9.073418 20.091139 20.091139 20.091139H718.312236c11.017722 0 20.091139-9.073418 20.09114-20.091139v-0.648101z"  horiz-adv-x="1111" />

    
    <glyph glyph-name="caigou" unicode="&#58921;" d="M1014.24128 448.70144c0.0768-0.60416 0.1536-1.21856 0.19456-1.83808 0.09728-1.08032 0.1536-2.16064 0.1536-3.26656 0-0.08704 0.02048-0.18432 0.02048-0.2816v-0.18432c0-24.4992-19.68128-44.35456-43.96544-44.35456h-38.95296l-94.23872-380.29312-0.13312 0.04608c-4.77696-19.29216-21.92384-33.63328-42.52672-33.63328h-498.0224v0.02048c-0.08192 0-0.1536-0.02048-0.23552-0.02048-20.59776 0-37.74976 14.34624-42.5216 33.63328l-0.13312-0.04608-94.2592 380.29312h-38.9376c-24.28416 0-43.96032 19.85536-43.96032 44.35456 0 24.48384 19.68128 44.3392 43.96032 44.3392H974.3872c20.15232-1.7152 36.39808-17.13664 39.6032-36.98688 0.09216-0.57856 0.18944-1.1776 0.25088-1.78176zM413.7728 354.43712c0 24.49408-19.68128 44.34432-43.96032 44.34432-24.27904 0-43.96032-19.84512-43.96032-44.34432v-236.50304c0-24.48896 19.68128-44.34944 43.96032-44.34944 24.28416 0 43.96032 19.86048 43.96032 44.34944v236.50304z m175.85664 0c0 24.49408-19.68128 44.34432-43.96544 44.34432s-43.96032-19.84512-43.96032-44.34432v-236.50304c0-24.48896 19.68128-44.34944 43.96032-44.34944 24.28416 0 43.96544 19.86048 43.96544 44.34944v236.50304z m175.85152 0c0 24.49408-19.68128 44.34432-43.96032 44.34432s-43.96544-19.84512-43.96544-44.34432v-236.50304c0-24.48896 19.6864-44.34944 43.96544-44.34944s43.96032 19.86048 43.96032 44.34944v236.50304z m-170.24 362.5984l0.19456 0.10752c-3.584 6.42048-5.80608 13.7216-5.80608 21.61152 0 24.49408 19.68128 44.35456 43.96032 44.35456 17.2288 0 31.97952-10.10688 39.18848-24.6528l0.1536 0.08704 119.00928-226.72384h-99.50208l-97.19808 185.216z m-99.072 0L398.96576 531.81952H299.45856l119.00928 226.72384 0.08192-0.05632c7.22944 14.53568 21.98016 24.62208 39.18848 24.62208 24.28416 0 43.96032-19.85536 43.96032-44.35456 0-7.87456-2.2016-15.16032-5.7856-21.5808l0.256-0.13824z"  horiz-adv-x="1091" />

    
    <glyph glyph-name="ziyuan" unicode="&#58935;" d="M456.524-128c-17.024 0.128-30.775 13.958-30.775 31 0 11.060 5.792 20.768 14.509 26.255l158.531 97.326c5.089 3.805 11.505 6.092 18.456 6.092 17.121 0 31.001-13.88 31.001-31.001 0-12.085-6.915-22.556-17.005-27.669l-158.58-97.331c-4.598-2.925-10.198-4.664-16.204-4.672zM456.524 390.95c-0.097-0.001-0.211-0.002-0.325-0.002-5.152 0-10.011 1.257-14.286 3.48l-425.35 225.845c-9.763 5.349-16.272 15.554-16.272 27.279 0 11.894 6.698 22.224 16.529 27.423l424.841 217.514c4.125 2.212 9.024 3.511 14.227 3.511s10.102-1.299 14.391-3.591l424.509-225.846c9.88-5.315 16.483-15.582 16.483-27.391s-6.603-22.076-16.318-27.31l-424.838-217.514c-4.058-2.12-8.859-3.374-13.951-3.401zM98.1 645.754l358.849-190.253 357.999 185.582-358.849 188.979zM456.524-128c-6.035 0.046-11.649 1.809-16.389 4.825l-424.422 261.021c-9.332 5.36-15.554 15.206-15.716 26.518l0.003 483.090c-0 0.051-0 0.111-0 0.171 0 17.121 13.88 31.001 31.001 31.001 5.281 0 10.254-1.32 14.606-3.649l424.507-225.845c9.874-5.275 16.494-15.485 16.563-27.248l-0.001-518.881c0-17.121-13.88-31.001-31.001-31.001 0 0 0 0 0 0zM62.003 181.586l362.671-223.378v445.057l-362.671 192.801zM316.382 341.688c-0.869-0.088-1.878-0.138-2.899-0.138-4.16 0-8.127 0.831-11.742 2.336l-185.804 100.148c-10.662 5.056-17.904 15.731-17.904 28.099 0 17.121 13.88 31.001 31.001 31.001 5.821 0 11.267-1.604 15.921-4.395l185.866-98.871c9.665-5.376 16.096-15.528 16.096-27.183 0-16.957-13.615-30.735-30.51-30.997zM815.372 230.424c-0.127-0.002-0.276-0.004-0.426-0.004-3.875 0-7.529 0.943-10.746 2.613l-80.983 42.406c-7.72 4.076-12.891 12.051-12.891 21.234 0 13.218 10.715 23.933 23.933 23.933 4.035 0 7.837-0.999 11.172-2.762l80.982-42.404c6.124-4.271 10.081-11.282 10.081-19.217 0-12.113-9.221-22.072-21.026-23.242zM815.372 127.228c-12.9 0-23.357 10.457-23.357 23.357v103.195c0 12.9 10.457 23.357 23.357 23.357s23.357-10.457 23.357-23.357v-103.62c-0.239-12.716-10.603-22.932-23.353-22.932-0.001 0-0.003 0-0.004 0zM815.372 30.828c-123.134 0-222.953 99.82-222.953 222.953s99.82 222.953 222.953 222.953c123.134 0 222.953-99.82 222.953-222.953 0-0 0-0 0-0-0.241-123.037-99.917-222.712-222.931-222.953zM815.372 413.033c-89.125 0-161.376-72.25-161.376-161.376s72.25-161.376 161.376-161.376c89.125 0 161.376 72.25 161.376 161.376 0.009 0.631 0.014 1.377 0.014 2.123 0 89.125-72.25 161.376-161.376 161.376-0.005 0-0.010-0-0.015-0z"  horiz-adv-x="1038" />

    
    <glyph glyph-name="shibai1" unicode="&#58887;" d="M512 893.248A509.184 509.184 0 0 1 2.752 384a509.248 509.248 0 1 1 1018.496 0A509.184 509.184 0 0 1 512 893.248z m148.352-719.872L510.912 328.64l-155.264-149.312a39.04 39.04 0 1 0-54.272 56.384l155.264 149.44-149.376 155.2a39.168 39.168 0 1 0 56.448 54.336l149.376-155.328 155.264 149.312a39.04 39.04 0 1 0 54.208-56.448L567.488 382.912l149.248-155.328a38.912 38.912 0 0 0-1.152-55.232 38.848 38.848 0 0 0-55.232 1.024z"  horiz-adv-x="1024" />

    
    <glyph glyph-name="cangku1" unicode="&#58977;" d="M828.8 457.6c-48 28.8-220.8 131.2-291.2 176-19.2 12.8-38.4 16-54.4 3.2-9.6-6.4-339.2-208-339.2-208s-28.8-12.8-28.8-70.4l19.2-374.4c0-25.6 22.4-48 51.2-48h643.2c25.6 0 48 22.4 51.2 48l16 371.2v25.6s0 35.2-67.2 76.8z m-112-400H294.4c-12.8 0-22.4 9.6-22.4 22.4 0 12.8 9.6 22.4 22.4 22.4h419.2c12.8 0 22.4-9.6 22.4-22.4 0-12.8-9.6-22.4-19.2-22.4z m0 115.2H294.4c-12.8 0-22.4 9.6-22.4 22.4 0 12.8 9.6 22.4 22.4 22.4h419.2c12.8 0 22.4-9.6 22.4-22.4 0-12.8-9.6-22.4-19.2-22.4z m0 118.4H294.4c-12.8 0-22.4 9.6-22.4 22.4 0 12.8 9.6 22.4 22.4 22.4h419.2c12.8 0 22.4-9.6 22.4-22.4 0-12.8-9.6-22.4-19.2-22.4zM972.8 528L537.6 825.6c-16 9.6-38.4 12.8-54.4 0L54.4 540.8c-22.4-16-28.8-44.8-12.8-67.2 16-22.4 44.8-28.8 67.2-12.8L512 726.4 918.4 448c9.6-6.4 19.2-9.6 25.6-9.6 16 0 28.8 6.4 38.4 19.2 16 25.6 9.6 54.4-9.6 70.4z"  horiz-adv-x="1024" />

    
    <glyph glyph-name="xinxi1" unicode="&#58907;" d="M938.2 691.9H87c-12.7 0-23-10.3-23-23v-573.2c0-12.7 10.3-23 23-23h851.2c12.7 0 23 10.3 23 23V668.9c-0.1 12.6-10.4 23-23 23z m-48.3-40L521.6 318.1c-5.2-4.7-13-4.7-18.1 0L135.2 651.9h754.7zM104 112.7V626.2l372.7-337.7c10.2-9.3 23.1-13.9 35.9-13.9s25.7 4.6 35.9 13.9l372.7 337.7v-513.5H104z"  horiz-adv-x="1024" />

    
    <glyph glyph-name="dianhua" unicode="&#59461;" d="M1062.99 82.139c0-185.198-84.919-184.832-494.958-184.832-409.966 0-494.885-0.366-494.885 184.832 0 202.167 221.623 605.55 494.885 605.55 273.335 0 494.958-403.383 494.958-605.55zM569.495 600.942c-116.209-0.332-210.287-94.615-210.287-210.87 0-0.206 0-0.412 0.001-0.618-0.001-0.164-0.001-0.395-0.001-0.627 0-116.255 94.077-210.538 210.255-210.87 116.241 0.332 210.319 94.615 210.319 210.87 0 0.232-0 0.463-0.001 0.695 0.001 0.138 0.001 0.344 0.001 0.55 0 116.255-94.077 210.538-210.255 210.87zM146.876 442.295c86.235 138.752 235.227 286.866 438.272 286.866 202.971 0 361.691-160.256 433.591-285.696 37.157-62.171 108.544-55.589 139.703 0 19.895 41.691 82.359 390.51-573.294 390.51-663.113-0.878-594.651-360.448-571.246-390.51 41.179-63.049 118.857-30.866 132.974-1.17z"  horiz-adv-x="1170" />

    
    <glyph glyph-name="wodeqianbao" unicode="&#58897;" d="M919.333158-127.289453H104.602886c-26.54157 0-49.309761 12.919029-62.80439 35.81513a71.438395 71.438395 0 0 0-1.215156 72.333774c10.360806 18.930855 18.930855 39.140822 25.96597 59.60661l0.5756 1.662846c13.942319 37.541932 24.047302 80.903822 24.047302 121.195844V348.604098c0 50.397006 10.680584 99.962588 31.849885 145.690836A384.564968 384.564968 0 0 0 214.606503 617.665269a410.722804 410.722804 0 0 0 136.801008 82.055023c23.663569 9.529383 48.222515 16.24472 73.421019 20.146011l-53.275007 47.966693A71.886084 71.886084 0 0 0 352.238934 848.225174c11.064317 28.780016 37.350065 46.815492 68.17666 46.815492H603.456495c30.762639 0 57.048387-18.035477 68.048749-46.815492s3.709424-59.734522-19.250633-80.392178l-53.147096-47.966693c25.134547-3.965247 49.693494-10.744539 73.357062-20.082056 50.397006-18.355255 96.89272-46.048025 136.545187-82.055023 76.682753-69.391816 123.178468-165.06938 123.178468-269.125126v-185.343302c0-40.803667 11.448051-84.613247 25.006636-122.85869 7.226982-20.465789 16.052853-40.675756 26.349703-59.862433 12.727163-23.279835 12.087607-49.437672-1.407023-72.141907a70.990706 70.990706 0 0 0-62.80439-35.687219z m-370.047049 187.709659v65.298658h112.050196c20.146011 0 36.582598 16.372631 36.582598 36.518642s-16.436587 36.518642-36.582598 36.518643H549.286109v32.937129h112.050196a36.582598 36.582598 0 1 1 0 72.973329H580.624349l90.177383 122.602868a36.454687 36.454687 0 0 1-58.839144 43.042112L507.267286 328.010398 402.63594 470.439499a36.454687 36.454687 0 0 1-58.775188-43.106069l90.241338-122.602867h-72.269817a36.518642 36.518642 0 0 1 0-72.973329H476.184869v-32.93713H361.832273a36.518642 36.518642 0 0 1 0-73.037284H476.184869v-65.298659a36.454687 36.454687 0 0 1 73.10124-0.063955z m370.047049-114.672375a512.923839 512.923839 0 0 0-30.954506 70.287195c-16.436587 46.303848-29.227705 98.043921-29.227705 147.289725V348.604098c0 83.462046-37.733799 159.441288-99.06721 214.954741a339.86001 339.86001 0 0 1-112.689751 67.601059l-1.854712 0.767467a275.009041 275.009041 0 0 1-57.751899 15.797031 71.438395 71.438395 0 0 0-58.647277 51.292384 71.630262 71.630262 0 0 0 21.105345 75.019908l53.211052 48.030649H420.415594l53.211051-47.966693c21.489079-19.314588 29.419572-47.455048 21.169301-75.147819a71.630262 71.630262 0 0 0-58.839144-51.292384 262.473745 262.473745 0 0 1-59.798477-16.628454 336.66223 336.66223 0 0 1-112.56184-67.409193c-30.698684-27.948593-56.85652-62.036923-74.252441-99.834677a274.305529 274.305529 0 0 1-25.070591-115.184019v-185.343302c0-49.501627-12.087607-101.881256-28.652105-146.522259-8.12236-23.535657-18.41921-47.966693-30.954506-70.990706h814.666316z"  horiz-adv-x="1024" />

    
    <glyph glyph-name="jia" unicode="&#58906;" d="M819.2 409.6H537.6V691.2h-51.2v-281.6H204.8v-51.2h281.6v-281.6h51.2V358.4h281.6z"  horiz-adv-x="1024" />

    
    <glyph glyph-name="arrow-top" unicode="&#58947;" d="M512.069 298.614l-278.284 278.284-51.533-51.533 329.818-329.818 329.818 329.818-51.533 51.533z"  horiz-adv-x="1024" />

    
    <glyph glyph-name="huifu" unicode="&#59557;" d="M271.511282 536.436526c-37.454529 0-67.894845-31.461804-67.894845-70.346414s30.440317-70.414514 67.894845-70.414514 67.894845 31.529903 67.894846 70.414514-30.372218 70.414514-67.894846 70.414513m271.511282 0c-37.454529 0-67.894845-31.529903-67.894845-70.414513s30.372218-70.414514 67.894845-70.414514c37.454529 0 67.826746 31.529903 67.826747 70.414514S580.477093 536.436526 543.022564 536.436526m271.511283 0c-37.454529 0-67.894845-31.529903-67.894846-70.414513s30.440317-70.414514 67.894846-70.414514 67.894845 31.529903 67.894845 70.414514-30.440317 70.414514-67.894845 70.414513M950.323537 888.509094H135.789691C60.812534 888.509094 0 825.381189 0 747.611968v-528.040753c0-77.769221 62.106418-149.477618 138.786053-149.477619h206.953295a36655.725582 36655.725582 0 0 1 185.229668-192.924871 16.479993 16.479993 0 0 1 24.038998 0s109.299124 123.94044 180.462728 192.924871h211.788334c76.611536 0 138.786053 71.708397 138.786053 149.477619V747.680067c0 77.769221-60.812534 140.829027-135.721592 140.829027m67.826747-668.86978c0-38.884611-32.687589-79.675997-70.959307-79.675997h-208.17908c-25.196683 0-47.941797-25.877674-47.941796-25.877674L544.92934-37.639247l-146.208859 151.656791s-27.78445 25.877674-51.687249 25.877674H138.786053c-38.271718 0-70.891208 40.859486-70.891208 79.675997V747.748166c0 38.95271 30.372218 70.414514 67.894846 70.414514h814.465747c37.454529 0 67.894845-31.461804 67.894846-70.414514v-528.040753"  horiz-adv-x="1089" />

    
    <glyph glyph-name="shouji" unicode="&#58925;" d="M225.113302 81.777116h562.461768V782.907535H225.089488v-701.130419z m339.825117 757.688558a11.549767 11.549767 0 0 1-11.716466 11.311628h-117.212279a11.573581 11.573581 0 0 1-11.716465-11.311628v-11.311627c0-6.215442 5.310512-11.311628 11.716465-11.311628h117.212279c6.429767 0 11.692651 5.096186 11.692652 11.311628v11.311627z m-58.582326-893.380465c25.766698 0 46.86586 20.337116 46.86586 45.222698 0 24.861767-21.099163 45.246512-46.889674 45.246512-25.766698 0-46.86586-20.384744-46.86586-45.246512 0-24.885581 21.099163-45.246512 46.86586-45.246512z m281.218977-67.869767H225.089488C186.439442-121.808372 154.790698-91.231256 154.790698-53.938605V828.130233C154.790698 865.470512 186.415628 896 225.113302 896h562.461768c38.67386 0 70.322605-30.529488 70.322604-67.869767v-882.068838c0-37.292651-31.672558-67.869767-70.322604-67.869767z"  horiz-adv-x="1024" />

    
    <glyph glyph-name="ccgl-tuihuoguanli-7" unicode="&#59270;" d="M568.184 379.577h-120.343l5.145 17.8c1.71 5.914 3.837 13.274 5.725 20.128 4.015 15.053 4.228 20.566 3.766 22.566-0.963-0.279-2.674-0.978-5.18-2.721-7.823-5.373-17.873-11.278-29.51-18.111l-3.656-2.156c-16.499-9.745-35.198-20.791-51.73-32.841-18.184-13.188-26.99-24.154-26.946-33.543 0.083-6.37 4.749-12.855 13.865-19.163 24.534-17.063 92.017-53.326 105.738-60.552l0.165-0.025c0.597 1.088 2.758 7.367-6.448 32.528l-11.849 29.179 121.871-0.035c21.179-2.81 61.234-19.345 61.234-61.797 0-36.822-31.939-61.742-61.771-61.917l-165.761-0c-0.058-7.514-0.132-23.419 0.015-46.898h166.080c5.131 0 51.004 0.894 81.505 31.818 18.296 18.538 27.322 44.283 26.83 76.522l-0.008 0.516 0.033 0.513c0.014 0.344 1.17 47.389-29.544 79.197-18.744 19.224-45.415 28.994-79.225 28.994zM847.589 668.97c-0.004 28.593-23.3 51.857-51.928 51.857l-118.732-0v61.916c0 32.032-26.919 51.858-51.858 51.858h-227.547c-19.261 0-51.857-10.922-51.857-51.858v-61.915h-118.803c-28.594 0-51.857-23.263-51.857-51.857v-682.506c0-28.592 23.263-51.857 51.857-51.857h568.798c28.632 0 51.928 23.264 51.928 51.857l-0 682.505zM392.56 787.774h237.464v-136.637h-237.464v136.637zM800.62-18.56h-578.786v692.491h123.827v-20.436c0-24.977 16.228-51.859 51.857-51.859h227.553c34.045 0 51.858 26.088 51.858 51.859v20.436h123.691l0-692.491z"  horiz-adv-x="1024" />

    
    <glyph glyph-name="dianzan1" unicode="&#58928;" d="M978.03264 481.97632c-25.63072 32.32256-64 50.85184-105.25184 50.85184h-234.89024c12.83072 35.76832 21.30944 74.63936 24.33536 112.24576 4.69504 58.48576-4.30592 110.43328-25.99424 150.22592-26.71104 48.95232-72.17664 79.48288-131.50208 88.29952-26.87488 3.9936-49.98656-1.17248-68.69504-15.34464-37.83168-28.66176-44.7744-83.2-52.81792-146.35008-6.43072-50.48832-13.71648-107.70432-38.1952-148.71552-16.34304-27.37664-48.14848-63.76448-135.33696-63.76448H118.69696c-60.59008 0-109.88544-49.28-109.88544-109.84448v-415.28832c0-60.55936 49.29536-109.84448 109.88544-109.84448h662.88128a134.8608 134.8608 0 0 1 83.46624 29.06624 134.8352 134.8352 0 0 1 47.31904 74.624l91.20256 389.86752c9.39008 40.13568 0.08192 81.67424-25.53344 113.9712zM82.048-15.70816v415.2832c0 20.18304 16.44032 36.60288 36.64384 36.60288h77.2096v-488.48384h-77.2096c-20.20352 0-36.64384 16.4096-36.64384 36.59776z m850.19136 400.39424l-91.19744-389.87776a60.80512 60.80512 0 0 0-59.4688-47.11424H269.14304V441.49248c61.8752 11.81184 108.42624 43.32032 138.77248 94.15168 32.32256 54.13888 40.6272 119.41888 47.96416 177.00864 3.30752 26.02496 6.44096 50.60096 11.41248 69.45792 5.32992 20.224 10.84928 26.15296 12.97408 27.76064 2.432 1.83808 7.04512 2.27328 13.71136 1.28 36.74112-5.45792 62.24384-22.1184 77.96224-50.92864 32.23552-59.10016 17.99168-158.85824-12.74368-226.84672a52.07552 52.07552 0 0 1 3.68128-49.91488 52.03456 52.03456 0 0 1 43.904-23.87968h266.0096c18.75968 0 36.20352-8.4224 47.86176-23.12192a60.5952 60.5952 0 0 0 11.58656-51.77344z"  horiz-adv-x="1024" />

    
    <glyph glyph-name="lianxiren" unicode="&#58916;" d="M886.784-4.58752H146.32448l-39.01952 24.93952-2.37056 7.20896c-1.17248 3.54304-11.09504 35.50208-0.768 68.67456l1.04448 3.36896 2.09408 2.90304c24.10496 33.03936 84.39296 66.12992 148.20352 101.18144 58.45504 32.10752 146.75456 80.59904 147.30752 106.42944l0.06656 24.39168C347.09504 388.39296 316.50304 461.80352 316.50304 542.31552c0 124.544 23.76704 251.88352 200.0896 251.904 176.32256-0.02048 200.05888-127.36 200.05888-251.904 0-80.53248-30.62784-153.94304-86.37952-207.76448l0.09728-24.86784c0.53248-25.344 88.85248-73.8816 147.28192-105.984 63.79008-35.07712 124.07808-68.1472 148.16256-101.18656l2.10944-2.89792 1.07008-3.34848c10.28608-33.18784 0.37888-65.152-0.78848-68.69504l-2.36544-7.20384-39.05536-24.95488z"  horiz-adv-x="1024" />

    
    <glyph glyph-name="shangpin" unicode="&#58888;" d="M931.2 896H92.8L19.2 707.2v-150.4c0-54.4 44.8-99.2 99.2-99.2 54.4 0 99.2 44.8 99.2 99.2 0-54.4 44.8-99.2 99.2-99.2 54.4 0 99.2 44.8 99.2 99.2 0-54.4 44.8-99.2 99.2-99.2 54.4 0 99.2 44.8 99.2 99.2 0-54.4 44.8-99.2 99.2-99.2 54.4 0 99.2 44.8 99.2 99.2 0-54.4 44.8-99.2 99.2-99.2s99.2 44.8 99.2 99.2V707.2L931.2 896zM92.8-76.8c0-28.8 22.4-51.2 51.2-51.2h732.8c28.8 0 51.2 22.4 51.2 51.2V448H92.8v-524.8z m441.6 409.6H800V160H534.4V332.8zM224 336h224v-361.6H224V336z"  horiz-adv-x="1024" />

    
    <glyph glyph-name="choujiang" unicode="&#58913;" d="M927.19616 280.28928v-317.68576c0-50.02752-40.99072-90.60352-91.60704-90.60352h-275.0464v453.59104h320.14336c22.66112 0 46.51008-20.03968 46.51008-45.30176m-778.8032 45.30176h320.55296V-128H194.21184c-50.60608 0-91.648 40.576-91.648 90.60352v317.68576c0 23.87456 22.43584 45.30176 45.82912 45.30176M766.8736 800.41472c-85.42208 0-134.44608-86.85056-183.26016-158.48448h86.86592c80.1024 0 165.10976 37.76512 165.10976 113.18784 0 37.18144-26.28608 45.29664-68.71552 45.29664m-503.94112 0c-42.48576 0-68.72064-8.1152-68.72064-45.29664 0-75.42272 81.09056-112.47104 161.17248-112.47104h89.12384c-48.7936 71.63904-96.16384 157.76768-181.57568 157.76768m732.97408-384.26624h-435.35872V551.28576s0.85504 45.30176-46.37184 45.30176-45.23008-45.30176-45.23008-45.30176v-135.13728H33.13664C20.48512 416.14848 10.24 426.32704 10.24 438.81984V553.472c0 19.54816 23.8336 43.88352 46.50496 43.88352h129.97632c-49.84832 35.82976-84.20352 90.59328-84.20352 156.6464C102.51776 812.82048 142.43328 890.88 238.32576 890.88c126.18752 0 226.2784-130.048 275.85024-204.4928 49.52576 74.4448 146.37056 204.1344 272.5632 204.1344 95.93856 0 141.39392-77.3376 141.39392-136.1664 0-66.0992-37.64736-121.03168-90.47552-157.0048h134.63552c22.93248 0 46.18752-23.168 46.18752-45.7984s0.35328-112.73728 0.35328-112.73728c0.00512-12.48768-10.24-22.66624-22.92736-22.66624"  horiz-adv-x="1024" />

    
    <glyph glyph-name="turnoff" unicode="&#59183;" d="M512-128c-282.77 0-512 229.23-512 512s229.23 512 512 512c282.77 0 512-229.23 512-512 0-282.77-229.23-512-512-512zM512 832c-247.424 0-448-200.576-448-448s200.576-448 448-448c247.424 0 448 200.576 448 448 0 247.424-200.576 448-448 448zM557.44 383.808l135.552-135.552c6.027-5.827 9.769-13.985 9.769-23.017 0-17.673-14.327-32-32-32-9.032 0-17.19 3.742-23.009 9.76l-135.561 135.561-136.512-136.512c-5.839-5.839-13.906-9.451-22.816-9.451-17.82 0-32.267 14.446-32.267 32.267 0 8.91 3.612 16.977 9.451 22.816l136.512 136.512-135.552 135.488c-5.804 5.796-9.394 13.807-9.394 22.656 0 17.683 14.335 32.018 32.018 32.018 8.834 0 16.832-3.577 22.624-9.362l135.552-135.552 137.536 137.536c5.766 5.462 13.573 8.82 22.163 8.82 17.814 0 32.256-14.442 32.256-32.256 0-8.607-3.371-16.426-8.865-22.21l-137.459-137.522z"  horiz-adv-x="1024" />

    
    <glyph glyph-name="chenggong" unicode="&#58915;" d="M512 896c-281.88764 0-512-230.11236-512-512s230.11236-512 512-512 512 230.11236 512 512-230.11236 512-512 512z m0-977.977528c-256.575281 0-465.977528 209.402247-465.977528 465.977528s209.402247 465.977528 465.977528 465.977528 465.977528-209.402247 465.977528-465.977528-209.402247-465.977528-465.977528-465.977528zM775.478652 609.510112c-12.65618 9.204494-31.065169 5.752809-40.269663-6.90337l-271.532585-388.889888-181.788764 146.121348c-12.65618 10.355056-29.914607 8.053933-40.269662-4.602247-10.355056-12.65618-8.053933-31.065169 4.602247-40.269663l205.950562-165.680899c4.602247-4.602247 11.505618-6.903371 18.408988-6.903371h4.602247c8.053933 1.150562 14.957303 5.752809 19.559551 11.505618l288.791011 414.202248c8.053933 13.806742 5.752809 32.21573-8.053932 41.420224z"  horiz-adv-x="1024" />

    
    <glyph glyph-name="android" unicode="&#58902;" d="M929.477 551.385c15.754 0 27.569-3.938 39.385-13.785s15.754-21.662 15.754-35.446v-297.354c0-13.785-5.908-25.6-15.754-35.446s-23.631-13.785-39.385-13.785h-17.723c-15.754 0-27.569 3.938-39.385 13.785-9.846 9.846-15.754 21.662-15.754 35.446v295.385c0 13.785 5.908 25.6 15.754 35.446s23.631 13.785 39.385 13.785c0 1.969 17.723 1.969 17.723 1.969zM112.246 551.385c15.754 0 27.569-3.938 37.415-13.785 9.846-9.846 15.754-21.662 15.754-35.446v-297.354c0-13.785-5.908-25.6-15.754-35.446s-23.631-13.785-37.415-13.785h-17.723c-15.754 0-27.569 3.938-39.385 13.785-9.846 9.846-15.754 21.662-15.754 35.446v295.385c0 13.785 5.908 25.6 15.754 35.446s23.631 13.785 39.385 13.785c0 1.969 17.723 1.969 17.723 1.969zM667.569 785.723c11.815-5.908 25.6-11.815 37.415-21.662 13.785-9.846 25.6-19.692 37.415-33.477s23.631-27.569 31.508-41.354 15.754-31.508 19.692-47.262h-571.077c9.846 35.446 27.569 64.985 51.2 86.646s47.262 41.354 70.892 55.138l-51.2 80.738c-1.969 1.969-1.969 3.938 0 7.877s3.938 7.877 9.846 11.815c5.908 3.938 9.846 5.908 15.754 5.908 3.938 0 7.877-1.969 9.846-1.969l53.169-82.708c19.692 7.877 39.385 15.754 59.077 19.692 21.662 3.938 41.354 7.877 64.985 7.877 45.292 0 88.615-9.846 128-27.569l53.169 82.708c1.969 1.969 3.938 1.969 7.877 1.969s9.846-1.969 15.754-5.908c5.908-3.938 9.846-5.908 11.815-9.846s0-3.938 0-5.908l-55.138-82.708zM387.938 699.077c7.877 0 15.754 3.938 21.662 9.846s9.846 13.785 9.846 21.662c0 7.877-3.938 15.754-9.846 21.662-5.908 5.908-13.785 9.846-21.662 9.846s-15.754-3.938-21.662-9.846c-5.908-5.908-9.846-13.785-9.846-21.662 0-7.877 3.938-15.754 9.846-21.662s11.815-9.846 21.662-9.846zM636.062 703.015c7.877 0 15.754 3.938 21.662 9.846 5.908 5.908 9.846 13.785 9.846 21.662s-3.938 15.754-9.846 21.662c-5.908 5.908-13.785 9.846-21.662 9.846-7.877 0-15.754-3.938-21.662-9.846-5.908-5.908-9.846-13.785-9.846-21.662s3.938-15.754 9.846-21.662c3.938-7.877 11.815-9.846 21.662-9.846zM795.569 576.985l1.969-452.923c0-13.785-3.938-27.569-13.785-37.415-9.846-9.846-21.662-15.754-35.446-15.754h-13.785v-139.815c0-13.785-3.938-25.6-13.785-35.446-9.846-9.846-21.662-15.754-35.446-15.754h-29.538c-13.785 0-25.6 5.908-35.446 15.754s-13.785 21.662-13.785 35.446v141.785h-185.108v-141.785c0-13.785-3.938-25.6-13.785-35.446-9.846-9.846-21.662-15.754-35.446-15.754h-29.538c-13.785 0-25.6 5.908-35.446 15.754s-13.785 21.662-13.785 35.446v141.785h-11.815c-13.785 0-25.6 5.908-35.446 15.754s-13.785 21.662-13.785 37.415v452.923c-3.938-1.969 563.2-1.969 563.2-1.969z"  horiz-adv-x="1024" />

    
    </font>
</defs>
</svg>
